<?xml version="1.0" encoding="utf-8"?>
<!-- Generator: Adobe Illustrator 27.0.1, SVG Export Plug-In . SVG Version: 6.00 Build 0)  -->
<svg version="1.1" id="Layer_1" xmlns:serif="http://www.serif.com/"
	 xmlns="http://www.w3.org/2000/svg" xmlns:xlink="http://www.w3.org/1999/xlink" x="0px" y="0px" viewBox="0 0 1920 1080"
	 style="enable-background:new 0 0 1920 1080;" xml:space="preserve">
<style type="text/css">
	.st0{fill:#67656B;}
	.st1{fill:#FFFFFF;}
</style>
<rect x="1" y="1" width="1917" height="1077"/>
<g>
	<path class="st0" d="M1617.3,559.4c28.2-10.7,28.2-28.1,0-38.8L697.3,172.1c-28.2-10.7-68.6-2-89.9,19.3L297.6,501.3
		c-21.3,21.3-21.3,56.2,0,77.5l309.8,309.8c21.3,21.3,61.8,30,89.9,19.3L1617.3,559.4z"/>
	<path class="st1" d="M1638.4,540c0-7-7-14.1-21.1-19.4L697.3,172.1c-28.2-10.7-68.6-2-89.9,19.3L297.6,501.3
		c-10.7,10.7-16,24.7-16,38.8H1638.4z"/>
	<g>
		<path class="st1" d="M469.3,627.7h-20.8V658h-5.4v-71.5h26.2c12.4,0,21.6,7.5,21.6,20.6S481.7,627.7,469.3,627.7z M468.8,591.3
			h-20.2v31.5h20.2c9.8,0,16.8-5,16.8-15.8C485.5,596.4,478.6,591.3,468.8,591.3z"/>
		<path class="st1" d="M505,658v-71.5h43.4v4.8h-38v28.2h32.3v4.8h-32.3v28.8h38v4.8H505z"/>
		<path class="st1" d="M611.4,658l-41.3-62.2V658h-5.4v-71.5h5.4l41.3,62v-62h5.4V658H611.4z"/>
		<path class="st1" d="M637.4,658v-71.5h5.4V658H637.4z"/>
		<path class="st1" d="M709.9,658l-41.3-62.2V658h-5.4v-71.5h5.4l41.3,62v-62h5.4V658H709.9z"/>
		<path class="st1" d="M755.2,658.6c-10.6,0-17.3-2.9-23.8-9.4l3.8-3.8c6.4,6.4,11.6,8.4,20.3,8.4c11.3,0,18.4-5.4,18.4-14.8
			c0-4.2-1.3-7.7-3.9-10c-2.6-2.2-4.5-2.9-10.3-3.8l-8.3-1.3c-5.4-0.8-9.7-2.6-12.8-5.2c-3.8-3.2-5.6-7.6-5.6-13.1
			c0-12,8.5-19.6,22.2-19.6c8.8,0,14.5,2.4,20.6,7.7l-3.5,3.5c-4.4-3.9-8.8-6.6-17.4-6.6c-10.3,0-16.6,5.7-16.6,14.8
			c0,4.1,1.2,7.2,3.7,9.3c2.5,2.1,6.6,3.8,10.6,4.4l7.7,1.2c6.7,1,9.7,2.2,12.8,4.7c3.9,3.2,6.2,8.1,6.2,13.9
			C779.3,650.9,770.1,658.6,755.2,658.6z"/>
		<path class="st1" d="M819.7,658.6c-14.4,0-24.5-9.9-24.5-23.8v-48.3h5.4v47.6c0,11.9,7.6,19.7,19.1,19.7
			c11.4,0,19.1-7.8,19.1-19.7v-47.6h5.4v48.3C844.2,648.8,834,658.6,819.7,658.6z"/>
		<path class="st1" d="M864.1,658v-71.5h5.4v66.7h38v4.8H864.1z"/>
		<path class="st1" d="M968.9,658l-6.2-17.4h-33.3l-6.2,17.4h-5.8l26.3-71.5h4.8l26.3,71.5H968.9z M946,593.8l-15,42.1H961
			L946,593.8z"/>
	</g>
</g>
</svg>
