<?xml version="1.0" encoding="utf-8"?>
<!-- Generator: Adobe Illustrator 27.1.1, SVG Export Plug-In . SVG Version: 6.00 Build 0)  -->
<svg version="1.1" id="Layer_1" xmlns:serif="http://www.serif.com/"
	 xmlns="http://www.w3.org/2000/svg" xmlns:xlink="http://www.w3.org/1999/xlink" x="0px" y="0px" viewBox="0 0 1356.8 745"
	 style="enable-background:new 0 0 1356.8 745;" xml:space="preserve">
<style type="text/css">
	.st0{opacity:0.4;fill:#FCFCFC;}
	.st1{fill:#FCFCFC;}
	.st2{fill:#FFFFFF;}
</style>
<path class="st0" d="M1335.7,391.9c28.2-10.7,28.2-28.1,0-38.8L415.7,4.6c-28.2-10.7-68.6-2-89.9,19.3L16,333.8
	c-21.3,21.3-21.3,56.2,0,77.5l309.8,309.8c21.3,21.3,61.8,30,89.9,19.3L1335.7,391.9z"/>
<path class="st1" d="M1356.8,372.5c0-7-7-14.1-21.1-19.4L415.7,4.6c-28.2-10.7-68.6-2-89.9,19.3L16,333.8C5.3,344.5,0,358.5,0,372.6
	L1356.8,372.5L1356.8,372.5z"/>
<g>
	<path class="st2" d="M187.7,460.2h-20.8v30.3h-5.4V419h26.2c12.4,0,21.6,7.5,21.6,20.6S200.1,460.2,187.7,460.2z M187.2,423.8H167
		v31.5h20.2c9.8,0,16.8-5,16.8-15.8C203.9,428.9,197,423.8,187.2,423.8z"/>
	<path class="st2" d="M223.4,490.5V419h43.4v4.8h-38V452h32.3v4.8h-32.3v28.8h38v4.8h-43.4V490.5z"/>
	<path class="st2" d="M329.8,490.5l-41.3-62.2v62.2h-5.4V419h5.4l41.3,62v-62h5.4v71.5H329.8z"/>
	<path class="st2" d="M355.8,490.5V419h5.4v71.5H355.8z"/>
	<path class="st2" d="M428.3,490.5L387,428.3v62.2h-5.4V419h5.4l41.3,62v-62h5.4v71.5H428.3z"/>
	<path class="st2" d="M473.6,491.1c-10.6,0-17.3-2.9-23.8-9.4l3.8-3.8c6.4,6.4,11.6,8.4,20.3,8.4c11.3,0,18.4-5.4,18.4-14.8
		c0-4.2-1.3-7.7-3.9-10c-2.6-2.2-4.5-2.9-10.3-3.8l-8.3-1.3c-5.4-0.8-9.7-2.6-12.8-5.2c-3.8-3.2-5.6-7.6-5.6-13.1
		c0-12,8.5-19.6,22.2-19.6c8.8,0,14.5,2.4,20.6,7.7l-3.5,3.5c-4.4-3.9-8.8-6.6-17.4-6.6c-10.3,0-16.6,5.7-16.6,14.8
		c0,4.1,1.2,7.2,3.7,9.3s6.6,3.8,10.6,4.4l7.7,1.2c6.7,1,9.7,2.2,12.8,4.7c3.9,3.2,6.2,8.1,6.2,13.9
		C497.7,483.4,488.5,491.1,473.6,491.1z"/>
	<path class="st2" d="M538.1,491.1c-14.4,0-24.5-9.9-24.5-23.8V419h5.4v47.6c0,11.9,7.6,19.7,19.1,19.7c11.4,0,19.1-7.8,19.1-19.7
		V419h5.4v48.3C562.6,481.3,552.4,491.1,538.1,491.1z"/>
	<path class="st2" d="M582.5,490.5V419h5.4v66.7h38v4.8H582.5z"/>
	<path class="st2" d="M687.3,490.5l-6.2-17.4h-33.3l-6.2,17.4h-5.8l26.3-71.5h4.8l26.3,71.5H687.3z M664.4,426.3l-15,42.1h30
		L664.4,426.3z"/>
</g>
</svg>
