<?xml version="1.0" encoding="utf-8"?>
<!-- Generator: Adobe Illustrator 27.0.1, SVG Export Plug-In . SVG Version: 6.00 Build 0)  -->
<svg version="1.1" id="Layer_1" xmlns="http://www.w3.org/2000/svg" xmlns:xlink="http://www.w3.org/1999/xlink" x="0px" y="0px"
	 viewBox="0 0 1920 1080" style="enable-background:new 0 0 1920 1080;" xml:space="preserve">
<style type="text/css">
	.st0{fill:#08181C;}
	.st1{clip-path:url(#SVGID_00000000906012498414024950000008005829213385606806_);}
	.st2{fill:#6DB039;}
	.st3{fill:#35AB5C;}
	.st4{fill:#C2153D;}
	.st5{fill:#E24B11;}
	.st6{fill:#308F3D;}
	.st7{fill:#4F8ECB;}
	.st8{fill:#D60677;}
	.st9{fill:#5B2580;}
	.st10{fill:#E89CBA;}
	.st11{fill:#B59DC6;}
	.st12{fill:#40A99F;}
	.st13{fill:#FFE806;}
</style>
<rect x="0" y="0.4" transform="matrix(-1 -6.693414e-11 6.693414e-11 -1 2884.7112 1077.3514)" class="st0" width="2884.7" height="1076.6"/>
<g>
	<defs>
		
			<rect id="SVGID_1_" x="1271.3" y="-475.3" transform="matrix(-1.522499e-10 1 -1 -1.522499e-10 2348.2439 -1270.8925)" width="1076.5" height="2027.9"/>
	</defs>
	<clipPath id="SVGID_00000008108356937933331570000000483816474273495225_">
		<use xlink:href="#SVGID_1_"  style="overflow:visible;"/>
	</clipPath>
	<g style="clip-path:url(#SVGID_00000008108356937933331570000000483816474273495225_);">
		<g>
			<g>
				<g>
					<path class="st2" d="M1669,535.8c457.7-124.3,918.8,106.3,918.8,106.3s-281,432.3-738.6,556.6s-918.8-106.3-918.8-106.3
						S1211.4,660.2,1669,535.8z"/>
				</g>
				<g>
					<path class="st3" d="M1986.2,831.4c77.8-50.2,177.2-34.6,177.2-34.6s-26.7,97-104.5,147.2c-77.8,50.2-177.2,34.6-177.2,34.6
						S1908.4,881.5,1986.2,831.4z"/>
				</g>
				<g>
					<path class="st4" d="M2303.1,127C2773.4,76.8,3191,376.8,3191,376.8s-345,381.3-815.3,431.4s-887.9-249.9-887.9-249.9
						S1832.7,177.1,2303.1,127z"/>
				</g>
			</g>
			<g>
				<g>
					<path class="st5" d="M1469.2,287.5c172.2,57.5,270.1,228.8,270.1,228.8s-181.2,78.1-353.4,20.6S1115.8,308,1115.8,308
						S1297,229.9,1469.2,287.5z"/>
				</g>
				<g>
					<path class="st6" d="M1737.7,218.3c126.3,161,112.2,383,112.2,383s-219-39-345.4-200s-112.2-383-112.2-383
						S1611.3,57.3,1737.7,218.3z"/>
				</g>
				<g>
					<path class="st2" d="M1927.1,912.3c158.4-6.7,291.6,102.5,291.6,102.5s-123.5,120.2-281.9,126.9
						c-158.4,6.7-291.6-102.5-291.6-102.5S1768.7,919.1,1927.1,912.3z"/>
				</g>
				<g>
					<path class="st2" d="M2449-454.1c271.8,258.4,305,664.7,305,664.7s-407.5-12.6-679.3-271s-305-664.7-305-664.7
						S2177.2-712.5,2449-454.1z"/>
				</g>
			</g>
			<g>
				<g>
					<path class="st5" d="M2414.7-63.7c93.1,463.1-166.8,906-166.8,906s-410.9-308-504-771.1c-93.1-463.1,166.8-906,166.8-906
						S2321.6-526.8,2414.7-63.7z"/>
				</g>
			</g>
			<g>
				<g>
					<path class="st4" d="M1758-282c260.4-22.8,488.1,147.2,488.1,147.2s-194.6,207.1-455,230S1303-52,1303-52
						S1497.5-259.2,1758-282z"/>
				</g>
				<g>
					<path class="st8" d="M2310.7-88.5c347.4,309.4,404.9,811.9,404.9,811.9s-505.7,0.8-853.1-308.7s-404.9-811.9-404.9-811.9
						S1963.3-397.9,2310.7-88.5z"/>
				</g>
				<g>
					<path class="st4" d="M2558.7,784c419.9,84.5,699.1,457.2,699.1,457.2s-401.6,235.6-821.5,151
						c-419.9-84.5-699.1-457.2-699.1-457.2S2138.8,699.4,2558.7,784z"/>
				</g>
			</g>
			<g>
				<g>
					<path class="st6" d="M1846-131.1c224.6,91.7,340.4,328.7,340.4,328.7s-248.5,88.4-473.1-3.2s-340.4-328.7-340.4-328.7
						S1621.3-222.7,1846-131.1z"/>
				</g>
				<g>
					<path class="st9" d="M1889.5,699.5c263.2,272.6,279.1,684.1,279.1,684.1s-410.8-30.3-673.9-302.9s-279.1-684.1-279.1-684.1
						S1626.4,427,1889.5,699.5z"/>
				</g>
				<g>
					<path class="st10" d="M2123.2,758.2c100,189.5,43.9,415.6,43.9,415.6s-218.4-81.2-318.4-270.7
						c-100-189.5-43.9-415.6-43.9-415.6S2023.2,568.7,2123.2,758.2z"/>
				</g>
			</g>
			<g>
			</g>
			<g>
			</g>
			<g>
				<g>
					<path class="st7" d="M2227.4,1030.5c176.5,155.4,207,409.1,207,409.1s-255.6,1.9-432-153.5s-207-409.1-207-409.1
						S2050.9,875.1,2227.4,1030.5z"/>
				</g>
			</g>
			<g>
				<g>
					<path class="st6" d="M1822.6,1007.8c379,272.5,488.8,767.9,488.8,767.9s-504.6,53.5-883.5-219S939.1,788.9,939.1,788.9
						S1443.7,735.3,1822.6,1007.8z"/>
				</g>
				<g>
					<path class="st6" d="M2096.9,1056.3c117.7,205.8,64,457.9,64,457.9s-244.5-81.6-362.2-287.5c-117.7-205.8-64-457.9-64-457.9
						S1979.2,850.5,2096.9,1056.3z"/>
				</g>
			</g>
			<g>
				<g>
					<path class="st7" d="M1622.8,999c63.2,104.1,39,234.3,39,234.3s-126.6-38.6-189.8-142.8s-39-234.3-39-234.3
						S1559.7,894.9,1622.8,999z"/>
				</g>
			</g>
		</g>
	</g>
</g>
</svg>
