<?xml version="1.0" encoding="utf-8"?>
<!-- Generator: Adobe Illustrator 27.0.1, SVG Export Plug-In . SVG Version: 6.00 Build 0)  -->
<svg version="1.1" id="Layer_1" xmlns:serif="http://www.serif.com/"
	 xmlns="http://www.w3.org/2000/svg" xmlns:xlink="http://www.w3.org/1999/xlink" x="0px" y="0px" viewBox="0 0 1920 1080"
	 style="enable-background:new 0 0 1920 1080;" xml:space="preserve">
<style type="text/css">
	.st0{fill:#FFFFFF;}
</style>
<rect x="1" y="1" width="1917" height="1077"/>
<g>
	<path class="st0" d="M1452.2,428c-28.7-13.6-58.2-25.9-88.2-36.5c-14.3-5-20.1-7.1-32.9-10.4c-3.2-0.8-6.2-2.6-8.6-4.9
		c0.6,2.3,1.2,4.5,1.9,6.5c4.2,13.3,20.5,47.3,7.6,59.8c-13.9,13.5-33.4,1.4-30.9-16c0-0.1,0-0.1,0-0.2c-0.2-2.8-1.3-5.3-2.2-8.6
		c-2.4-8.7-5.1-17.3-7.8-25.9c-2.8-8.8-5.7-17.5-8.8-26.2c-0.6-1.7-1.4-3.6-2.1-5.4c-1.4-1.7-2.4-3.8-3.1-6.5
		c-1-4.3-1.9-7.4-1.3-11.7c1.3-10.2,14.8-18.5,24.3-12.9c8.7,5.2,13.9,16.9,17.6,28.8c0.7-1.7,1.7-3.4,3.1-5
		c23-24.6,46-50.9,63.8-79.6c3.2-5.1,8.2-18.1-22-8.5c-48.5,15.5-129.2,61-143.5,69.1c-12.5,7.1-24.9,14.1-37.4,21.2
		c0,0.1,0,0.2,0.1,0.4c1.8,18.4,3.6,36.9,5.6,55.5c16.8-8.9,33.5-17.7,50.3-26.6c8.3-4.4,19.4,2.2,22.3,10.2
		c3.5,9.6-1.8,17.9-10.2,22.3c-19.4,10.3-38.8,20.5-58.2,30.8c2.8,21.6,6,43.2,10.1,64.6c2.5,11.3,9.1,16.9,19.6,7.9
		c24-23.5,51-45,80.7-55.9c21-7.7,33.2,24.8,12.2,32.5c-40.4,14.8-75.2,53.5-103.4,84.9c-8,8.9-26,8.6-29.7-4.9
		c-7.7-28.2-13.5-57-18.2-86.2c-8,24.1-23.9,47.2-36.4,66.1c-24.2,36.8-54.5,71.1-73.3,111.2c-9.5,20.2-41.1,5.9-31.6-14.4
		c19.4-41.4,50.2-77.1,75.4-115c11.1-16.6,21.8-33.7,29.5-52.1c4.7-11.3,7.3-24,1.5-35.8c-19.3-39.6-129.6-57.7-164.5-56.8
		c-15,0.4-27.3,2.1-22.1,18.1c29.1,63.5,58.3,127,87.4,190.5c7.9,17.2-14.3,28-27.2,19.5c-45.1-29.7-90.1-59.3-135.2-89
		c31.6,84.4,63.3,168.7,94.9,253.1c7.8,20.9-24.6,33.1-32.5,12.2c-4.7-12.7-9.5-25.3-14.2-38c-27.5-73.3-54.9-146.5-82.4-219.8
		c-0.1-0.3-0.3-0.6-0.4-1c-4-10.5-13.4-6.9-18.7-1.5c-12.1,14.4-24.1,28.8-36,43.3c-1.2,1.5-2.4,3-3.6,4.5l-22,27.4
		c-5.2,6.6-10.4,13.2-15.5,19.9c-8,10.5-19.5,23.4-22.9,33.5c-19,56.1,65.3,48.4,99.8,44.3c0.4-0.1,0.8-0.1,1.2-0.2
		c13.6-1.6,14.3-18.8,9.7-25.3c-0.1-0.2-0.2-0.3-0.3-0.5c-12.6-17.4-28.5-32.5-44.1-47c-1.7-1.5-4.1-3.5-5.8-5.1
		c-3.8-3.3-6.1-8.3-6-13.8c0.3-9.7,8.3-17.4,18-17.2c4.6,0.1,8.7,2,11.7,5c14.2,13.2,28.3,27.2,41.1,41.6
		c14.6,16.4,35.2,40.7,30.8,64.6c-4.5,24.7-32.5,30.2-53.4,32.3c-33.8,3.4-78.4,8.7-108.8-9.6c-22.9-13.8-33.1-39.6-30-65.7
		c2.1-17.6,11.6-31,21.8-45c8.4-11.6,95.1-118.5,119.2-146.7c6.4-7.4,17.3-8,24.3-2.6c0,0,0.1,0.1,0.1,0.1
		c36.6,24.1,73.2,48.2,109.8,72.3c6.7,3.4,12.6-1.4,8-12.2c-23.8-51.9-42-90.4-65.7-142.4c-10.9-24,20.4-36.6,84.8-32.8
		c39.1,2.4,78.2,10,115.1,23.2c21,7.5,44.5,19.3,59.1,37.3c-1.8-15.9-3.4-31.8-5-47.6c-0.8,0.5-1.6,0.9-2.4,1.4
		c-19.3,10.9-39.8-17.1-20.4-28.1c32.7-18.5,136-76.9,156-86.2c34.4-16.1,74.5-37.4,113.2-39.3c16-0.8,32.4,5.4,35,23.2
		c2.6,17.9-9.3,36.2-18.5,50.5c-13.5,21.1-29.3,40.9-45.9,59.8c34.7,11.1,68.6,25.7,101.2,41.2c11,5.2,21.9,10.6,32.6,16.2
		c70.2-106.6,103.8-189.3,103.8-189.3s-415.2-116.5-771.5,58.1c-160,78.4-280.9,202.2-365.5,314.8c10.5,32.7,21,65.5,31.5,98.2
		c3.7,6.8,9.7,3.6,10.8-4.4c0-0.1,0-0.3,0-0.4c0.1-0.5,0.1-1.1,0.1-1.6c0-0.6,0.1-1.1,0.2-1.5c0.8-8.6,1.8-17.2,3.2-25.6
		c2.8-16.6,6.7-37.2,19.2-49.6c7.8-7.7,20.4-9.1,27.5,0.8c16.4,22.7,33,45.2,49.7,67.7c2.7,3.7,5.5,7.4,8.2,11.1
		c2.4,2.9,8.5,5.2,7.9-2.4c0-0.3,0-0.4,0-0.7c-0.8-8.6-1.5-17.2-2-25.8c-2.3-41-5.8-104.9,32.1-132.4c18.1-13.1,38.4,15,20.4,28.1
		c-12.7,9.2-15.3,30.1-17.1,45.1c-2.7,23.3-1.7,47,0.1,70.3c2.4,30.6,6.5,61.3,12.7,91.3c3.1,15.2-17.6,23.6-28.2,15
		c-9.3-7.5-16.5-18.8-23.8-28.2c-12.3-15.9-24.3-32-36.3-48.2c-11.6-15.6-23.1-31.2-34.5-46.9c-1.5,6.9-2.3,14-3.1,20.2
		c-3.1,23.1-3.9,46.5-4,69.7c-0.2,30.8,0.6,61.7,2.8,92.5c1.3,19.1-27.4,26.7-33.5,7.6c-23-71.8-46-143.5-69.1-215.3
		C354.2,754.1,313,855.6,313,855.6s415.2,116.5,771.5-58.1c179.7-88.1,310.1-233.5,395.2-355.9C1470.5,437,1461.4,432.4,1452.2,428z
		"/>
</g>
</svg>
