<?xml version="1.0" encoding="utf-8"?>
<!-- Generator: Adobe Illustrator 27.0.1, SVG Export Plug-In . SVG Version: 6.00 Build 0)  -->
<svg version="1.1" id="Layer_1" xmlns="http://www.w3.org/2000/svg" xmlns:xlink="http://www.w3.org/1999/xlink" x="0px" y="0px"
	 viewBox="0 0 231.3 127" style="enable-background:new 0 0 231.3 127;" xml:space="preserve">
<style type="text/css">
	.st0{fill:#FFFFFF;}
</style>
<g>
	<path class="st0" d="M204.2,43.5c-5.2-2.4-10.4-4.7-15.8-6.5c-2.6-0.9-3.6-1.3-5.9-1.9c-0.6-0.1-1.1-0.5-1.5-0.9
		c0.1,0.4,0.2,0.8,0.3,1.2c0.8,2.4,3.7,8.5,1.4,10.7c-2.5,2.4-6,0.3-5.5-2.9c0,0,0,0,0,0c0-0.5-0.2-1-0.4-1.5
		c-0.4-1.6-0.9-3.1-1.4-4.6c-0.5-1.6-1-3.1-1.6-4.7c-0.1-0.3-0.3-0.6-0.4-1c-0.2-0.3-0.4-0.7-0.6-1.2c-0.2-0.8-0.3-1.3-0.2-2.1
		c0.2-1.8,2.7-3.3,4.4-2.3c1.6,0.9,2.5,3,3.2,5.2c0.1-0.3,0.3-0.6,0.6-0.9c4.1-4.4,8.2-9.1,11.4-14.3c0.6-0.9,1.5-3.3-3.9-1.5
		c-8.7,2.8-23.2,10.9-25.7,12.4c-2.2,1.3-4.5,2.5-6.7,3.8c0,0,0,0,0,0.1c0.3,3.3,0.7,6.6,1,9.9c3-1.6,6-3.2,9-4.8
		c1.5-0.8,3.5,0.4,4,1.8c0.6,1.7-0.3,3.2-1.8,4c-3.5,1.8-7,3.7-10.4,5.5c0.5,3.9,1.1,7.7,1.8,11.6c0.5,2,1.6,3,3.5,1.4
		c4.3-4.2,9.1-8.1,14.5-10c3.8-1.4,5.9,4.4,2.2,5.8c-7.2,2.6-13.5,9.6-18.5,15.2c-1.4,1.6-4.7,1.5-5.3-0.9
		c-1.4-5.1-2.4-10.2-3.3-15.4c-1.4,4.3-4.3,8.5-6.5,11.9c-4.3,6.6-9.8,12.8-13.1,19.9c-1.7,3.6-7.4,1.1-5.7-2.6
		c3.5-7.4,9-13.8,13.5-20.6c2-3,3.9-6,5.3-9.3c0.8-2,1.3-4.3,0.3-6.4c-3.5-7.1-23.2-10.3-29.5-10.2c-2.7,0.1-4.9,0.4-4,3.2
		c5.2,11.4,10.4,22.8,15.7,34.2c1.4,3.1-2.6,5-4.9,3.5c-8.1-5.3-16.2-10.6-24.2-16c5.7,15.1,11.3,30.2,17,45.4
		c1.4,3.8-4.4,5.9-5.8,2.2c-0.9-2.3-1.7-4.5-2.6-6.8C102.9,90,98,76.8,93.1,63.7c0-0.1,0-0.1-0.1-0.2c-0.7-1.9-2.4-1.2-3.3-0.3
		c-2.2,2.6-4.3,5.2-6.4,7.8c-0.2,0.3-0.4,0.5-0.6,0.8l-3.9,4.9c-0.9,1.2-1.9,2.4-2.8,3.6c-1.4,1.9-3.5,4.2-4.1,6
		c-3.4,10.1,11.7,8.7,17.9,7.9c0.1,0,0.1,0,0.2,0c2.4-0.3,2.6-3.4,1.7-4.5c0,0,0-0.1-0.1-0.1c-2.3-3.1-5.1-5.8-7.9-8.4
		c-0.3-0.3-0.7-0.6-1-0.9c-0.7-0.6-1.1-1.5-1.1-2.5c0-1.7,1.5-3.1,3.2-3.1c0.8,0,1.6,0.4,2.1,0.9c2.6,2.4,5.1,4.9,7.4,7.5
		c2.6,2.9,6.3,7.3,5.5,11.6c-0.8,4.4-5.8,5.4-9.6,5.8c-6.1,0.6-14,1.6-19.5-1.7c-4.1-2.5-5.9-7.1-5.4-11.8c0.4-3.2,2.1-5.6,3.9-8.1
		c1.5-2.1,17-21.2,21.4-26.3c1.1-1.3,3.1-1.4,4.4-0.5c0,0,0,0,0,0c6.6,4.3,13.1,8.6,19.7,13c1.2,0.6,2.3-0.3,1.4-2.2
		c-4.3-9.3-7.5-16.2-11.8-25.5c-2-4.3,3.7-6.6,15.2-5.9c7,0.4,14,1.8,20.6,4.2c3.8,1.4,8,3.5,10.6,6.7c-0.3-2.8-0.6-5.7-0.9-8.5
		c-0.1,0.1-0.3,0.2-0.4,0.2c-3.5,2-7.1-3.1-3.7-5c5.9-3.3,24.4-13.8,28-15.5c6.2-2.9,13.4-6.7,20.3-7c2.9-0.1,5.8,1,6.3,4.2
		c0.5,3.2-1.7,6.5-3.3,9c-2.4,3.8-5.2,7.3-8.2,10.7c6.2,2,12.3,4.6,18.1,7.4c2,0.9,3.9,1.9,5.9,2.9c12.6-19.1,18.6-33.9,18.6-33.9
		S156.8-14.1,93,17.2C64.3,31.3,42.6,53.5,27.4,73.7c1.9,5.9,3.8,11.7,5.6,17.6c0.7,1.2,1.7,0.6,1.9-0.8c0,0,0,0,0-0.1
		c0-0.1,0-0.2,0-0.3c0-0.1,0-0.2,0-0.3c0.1-1.5,0.3-3.1,0.6-4.6c0.5-3,1.2-6.7,3.4-8.9c1.4-1.4,3.7-1.6,4.9,0.1
		c2.9,4.1,5.9,8.1,8.9,12.1c0.5,0.7,1,1.3,1.5,2c0.4,0.5,1.5,0.9,1.4-0.4c0,0,0-0.1,0-0.1c-0.1-1.5-0.3-3.1-0.4-4.6
		c-0.4-7.3-1-18.8,5.8-23.7c3.3-2.4,6.9,2.7,3.7,5c-2.3,1.6-2.7,5.4-3.1,8.1c-0.5,4.2-0.3,8.4,0,12.6c0.4,5.5,1.2,11,2.3,16.4
		c0.6,2.7-3.2,4.2-5.1,2.7c-1.7-1.4-3-3.4-4.3-5.1c-2.2-2.9-4.4-5.7-6.5-8.6c-2.1-2.8-4.1-5.6-6.2-8.4c-0.3,1.2-0.4,2.5-0.6,3.6
		c-0.5,4.1-0.7,8.3-0.7,12.5c0,5.5,0.1,11.1,0.5,16.6c0.2,3.4-4.9,4.8-6,1.4c-4.1-12.9-8.3-25.7-12.4-38.6C7.4,102,0,120.2,0,120.2
		s74.4,20.9,138.3-10.4C170.5,94,193.9,67.9,209.1,46C207.5,45.1,205.9,44.3,204.2,43.5z"/>
</g>
</svg>
