<?xml version="1.0" encoding="utf-8"?>
<!-- Generator: Adobe Illustrator 27.1.1, SVG Export Plug-In . SVG Version: 6.00 Build 0)  -->
<svg version="1.1" id="Layer_1" xmlns="http://www.w3.org/2000/svg" xmlns:xlink="http://www.w3.org/1999/xlink" x="0px" y="0px"
	 viewBox="0 0 227.2 303.5" style="enable-background:new 0 0 227.2 303.5;" xml:space="preserve">
<style type="text/css">
	.st0{fill:#DD0466;}
</style>
<g>
	<path class="st0" d="M0,34.6L196.3,0l20.2,114.9l-45.9,8.1l-10.7-60.8l-27.6,4.9l10.1,57.6l-44.2,7.8L88,74.8l-31.7,5.6l10.7,60.8
		l-46.8,8.2L0,34.6z"/>
	<path class="st0" d="M24.4,206.8c-2.3-21.5-3.9-43-4.9-63L216.9,123c2.5,15.5,6.2,42.4,9.3,71.2c6.1,57.9-13.4,100.9-85.1,108.4
		C73.2,309.7,31.2,271.1,24.4,206.8z M179.7,196.1c-0.7-6.5-1-9.7-2-13.7l-106,11.1c-0.3,2.4-0.2,6.2,0.5,12.7
		c2.5,24.3,21.3,41.7,58.3,37.8C161.2,240.8,183.5,232.5,179.7,196.1z"/>
</g>
</svg>
