<?xml version="1.0" encoding="utf-8"?>
<!-- Generator: Adobe Illustrator 27.1.1, SVG Export Plug-In . SVG Version: 6.00 Build 0)  -->
<svg version="1.1" id="Layer_1" xmlns="http://www.w3.org/2000/svg" xmlns:xlink="http://www.w3.org/1999/xlink" x="0px" y="0px"
	 viewBox="0 0 761 394.7" style="enable-background:new 0 0 761 394.7;" xml:space="preserve">
<style type="text/css">
	.st0{fill:#1B1A2B;}
	.st1{fill:#DD0466;}
</style>
<rect class="st0" width="761" height="394.7"/>
<g>
	<path class="st1" d="M484.1,78.8l196.3-34.6l20.2,114.9l-45.9,8.1l-10.7-60.8l-27.6,4.9l10.1,57.6l-44.2,7.8l-10.1-57.6l-31.7,5.6
		l10.7,60.8l-46.8,8.2L484.1,78.8z"/>
	<path class="st1" d="M508.4,251c-2.3-21.5-3.9-43-4.9-63l197.3-20.8c2.5,15.5,6.2,42.4,9.3,71.2c6.1,57.9-13.4,100.9-85.1,108.4
		C557.3,354,515.2,315.4,508.4,251z M663.8,240.3c-0.7-6.5-1-9.7-2-13.7l-106,11.1c-0.3,2.4-0.2,6.2,0.5,12.7
		c2.5,24.3,21.3,41.7,58.3,37.8C645.3,285,667.6,276.8,663.8,240.3z"/>
</g>
</svg>
