<?xml version="1.0" encoding="utf-8"?>
<!-- Generator: Adobe Illustrator 27.1.1, SVG Export Plug-In . SVG Version: 6.00 Build 0)  -->
<svg version="1.1" id="Layer_1" xmlns:serif="http://www.serif.com/"
	 xmlns="http://www.w3.org/2000/svg" xmlns:xlink="http://www.w3.org/1999/xlink" x="0px" y="0px" viewBox="0 0 1920 1080"
	 style="enable-background:new 0 0 1920 1080;" xml:space="preserve">
<style type="text/css">
	.st0{fill:#1A192B;}
	.st1{fill:#FFFFFF;}
	.st2{fill:#DD0065;}
</style>
<rect x="1" y="1" class="st0" width="1917" height="1077"/>
<g>
	<path class="st1" d="M412.5,422.3l-29.2-59.7c-6.7-13.7-12.9-27.7-17.3-39.3c1,10.3,1.3,16.3,1.3,27.7v71.4H321V247.7h61.5l25.3,52
		c7.5,15.5,15.3,31.3,21.2,45.3c-1.3-11.9-1.8-25.3-1.8-36.2v-61h46.3v174.5H412.5z"/>
	<path class="st1" d="M592.4,422.3l-9.1-28.4h-53.8l-8.8,28.4h-47.6L530,247.8h55.1l59.7,174.5H592.4z M564.2,334.1
		c-3.1-10.1-6.2-19.4-8-30.2h-0.5c-1.6,10.1-4.9,21.7-8.5,33.1l-6,19.1h30L564.2,334.1z"/>
	<path class="st1" d="M706.3,289.1v133.1h-48.1V289.1h-37.7v-41.4h123.6v41.4H706.3z"/>
	<path class="st1" d="M753.2,422.3V247.7h48.1v174.5L753.2,422.3L753.2,422.3z"/>
	<path class="st1" d="M891,425.9c-54.8,0-81.7-33.1-81.7-88.4c0-56.4,39.8-93.3,88.7-93.3c45.5,0,81.7,24.6,81.7,87.9
		C979.7,388.9,940.7,425.9,891,425.9z M894.4,288.1c-16.8,0-33.9,12.9-33.9,45.8c0,29.7,9.6,47.8,32.8,47.8
		c15,0,35.2-10.3,35.2-47.3C928.5,303.8,917.4,288.1,894.4,288.1z"/>
	<path class="st1" d="M1079.5,422.3l-29.2-59.7c-6.7-13.7-12.9-27.7-17.3-39.3c1,10.3,1.3,16.3,1.3,27.7v71.4H988V247.7h61.5
		l25.3,52c7.5,15.5,15.3,31.3,21.2,45.3c-1.3-11.9-1.8-25.3-1.8-36.2v-61h46.3v174.5H1079.5z"/>
	<path class="st1" d="M1259.3,422.3l-9-28.4h-53.8l-8.8,28.4h-47.6l56.9-174.5h55.1l59.7,174.5H1259.3z M1231.2,334.1
		c-3.1-10.1-6.2-19.4-8-30.2h-0.5c-1.5,10.1-4.9,21.7-8.5,33.1l-6,19.1h30L1231.2,334.1z"/>
	<path class="st1" d="M1311.2,422.3V247.7h48.1v131.6h48.1v42.9h-96.2V422.3z"/>
	<path class="st1" d="M481.5,609.1l-9.6-58.2c-1.8-11.6-3.6-24.6-5.2-39.6h-0.5c-2.9,15.2-6.2,29.7-10.6,45.8l-14,52h-45L383,562.8
		c-4.7-16-9.1-33.9-11.4-51.4h-0.5c-1.6,17.3-3.3,30.5-5.2,43.7l-7.2,54h-48.3l28.9-174.5h54.3l18.3,60.5
		c3.6,12.1,6.5,24.3,9.3,39.6h0.5c2.6-14.8,5.7-26.6,10.1-40.3l18.6-59.7h52.7L532,609.1H481.5z"/>
	<path class="st1" d="M605.5,612.7c-56.1,0-70.8-29.7-70.8-66.7V434.6h48.1v109.1c0,18.6,5.7,28.7,25.6,28.7
		c19.4,0,25.6-8.3,25.6-30V434.6h47.6v105.2C681.5,590.5,652.3,612.7,605.5,612.7z"/>
	<path class="st1" d="M731.3,612.4c-11.9,0-24.3-1-35.9-3.6l2.6-44c9.6,3.4,24,6.2,37.2,6.2c11.6,0,19.1-4.9,19.1-12.9
		c0-25.3-65.1-10.3-65.1-70.1c0-34.7,26.6-56.9,72.6-56.9c8.8,0,20.9,1,31.8,2.8l-2.6,41.6c-10.1-2.8-20.4-4.6-31-4.6
		c-13.4,0-19.1,5.4-19.1,12.2c0,22,65.1,13.4,65.1,68C806,586.1,777.9,612.4,731.3,612.4z"/>
	<path class="st1" d="M813.6,609.1V434.6h102.1v40.9h-54.1V500h51.2v39.3h-51.2v28.2h54.1v41.6H813.6z"/>
	<path class="st1" d="M999.1,612.7c-56.1,0-70.9-29.7-70.9-66.7V434.6h48.1v109.1c0,18.6,5.7,28.7,25.6,28.7
		c19.4,0,25.6-8.3,25.6-30V434.6h47.6v105.2C1075.1,590.5,1045.9,612.7,999.1,612.7z"/>
	<path class="st1" d="M1248.1,609.1l-9.6-58.2c-1.8-11.6-3.6-24.6-5.2-39.6h-0.5c-2.8,15.2-6.2,29.7-10.6,45.8l-14,52h-45
		l-13.7-46.3c-4.7-16-9-33.9-11.4-51.4h-0.5c-1.5,17.3-3.3,30.5-5.2,43.7l-7.2,54h-48.3l28.9-174.5h54.3l18.4,60.5
		c3.6,12.1,6.5,24.3,9.3,39.6h0.5c2.6-14.8,5.7-26.6,10.1-40.3l18.6-59.7h52.7l28.7,174.5L1248.1,609.1L1248.1,609.1z"/>
	<path class="st1" d="M1409.1,612.7c-54.8,0-81.7-33.1-81.7-88.4c0-56.4,39.8-93.3,88.7-93.3c45.5,0,81.7,24.6,81.7,87.9
		C1497.8,575.7,1458.8,612.7,1409.1,612.7z M1412.5,474.9c-16.8,0-33.8,12.9-33.8,45.8c0,29.7,9.6,47.8,32.8,47.8
		c15,0,35.2-10.3,35.2-47.3C1446.6,490.7,1435.5,474.9,1412.5,474.9z"/>
	<path class="st1" d="M1554.1,475.9v28.2h48.6v39.5h-48.6V609H1506V434.6h99.5V476h-51.4V475.9z"/>
	<path class="st1" d="M398.3,798.2c-68.5,0-82.7-47.3-82.7-82.5c0-58.2,32.8-95.7,90-95.7c11.4,0,23.5,1.6,33.6,4.1l-5.4,43.4
		c-8.3-2.3-18.4-3.9-28.2-3.9c-22.7,0-37,15.8-37,44c0,30.2,11.6,46.5,38.8,46.5c7.5,0,19.1-1.8,26.4-4.9l5.7,42.9
		C427.2,796.2,412.3,798.2,398.3,798.2z"/>
	<path class="st1" d="M520,799.5c-54.8,0-81.7-33.1-81.7-88.4c0-56.4,39.8-93.3,88.7-93.3c45.5,0,81.7,24.6,81.7,87.9
		C608.7,762.6,569.6,799.5,520,799.5z M523.3,661.7c-16.8,0-33.9,12.9-33.9,45.8c0,29.7,9.6,47.8,32.8,47.8
		c15,0,35.2-10.3,35.2-47.3C557.5,677.5,546.3,661.7,523.3,661.7z"/>
	<path class="st1" d="M774.4,795.9l-9.6-58.2c-1.8-11.6-3.6-24.6-5.2-39.5h-0.5c-2.8,15.2-6.2,29.7-10.6,45.8l-14,52h-45l-13.7-46.3
		c-4.6-16-9-33.9-11.4-51.4h-0.5c-1.6,17.3-3.3,30.5-5.2,43.7l-7.2,54h-48.4l29-174.5h54.3l18.4,60.5c3.6,12.2,6.5,24.3,9.3,39.6
		h0.5c2.6-14.8,5.7-26.6,10.1-40.3l18.6-59.7H796l28.7,174.5h-50.3V795.9z"/>
	<path class="st1" d="M1182.7,735.7v60.2h-48.1v-60L1080,621.4h52.2l16.3,37.8c4.4,10.1,7.8,18.9,10.4,26.6h0.5
		c3.1-9.3,7.7-19.7,12.7-30.5l15-33.9h50.9L1182.7,735.7z"/>
	<g>
		<path class="st2" d="M807.9,609.1l250.9-44.3l25.9,146.9L1026,722l-13.7-77.7l-35.3,6.2l13,73.6l-56.5,10l-13-73.6l-40.5,7.2
			l13.7,77.7l-59.9,10.5L807.9,609.1z"/>
		<path class="st2" d="M839.1,829.2c-2.9-27.5-5-54.9-6.2-80.6l252.3-26.5c3.2,19.8,8,54.2,11.8,91c7.8,74-17.2,129-108.8,138.6
			C901.5,960.8,847.7,911.4,839.1,829.2z M1037.7,815.6c-0.9-8.3-1.3-12.4-2.6-17.6l-135.5,14.3c-0.4,3-0.3,7.9,0.6,16.2
			c3.2,31.1,27.2,53.3,74.5,48.3C1014,872.7,1042.5,862.1,1037.7,815.6z"/>
	</g>
</g>
</svg>
