<?xml version="1.0" encoding="utf-8"?>
<!-- Generator: Adobe Illustrator 27.1.1, SVG Export Plug-In . SVG Version: 6.00 Build 0)  -->
<svg version="1.1" id="Layer_1" xmlns="http://www.w3.org/2000/svg" xmlns:xlink="http://www.w3.org/1999/xlink" x="0px" y="0px"
	 viewBox="0 0 68.4 37.4" style="enable-background:new 0 0 68.4 37.4;" xml:space="preserve">
<style type="text/css">
	.st0{opacity:0.53;}
	.st1{fill:#FFFFFF;}
</style>
<g class="st0">
	<path class="st1" d="M26.3,19.3l13.3-2.3l1.4,7.8l-3.1,0.5l-0.7-4.1l-1.9,0.3l0.7,3.9l-3,0.5L32.2,22l-2.1,0.4l0.7,4.1L27.6,27
		L26.3,19.3z"/>
	<path class="st1" d="M27.9,30.9c-0.2-1.5-0.3-2.9-0.3-4.3l13.3-1.4c0.2,1,0.4,2.9,0.6,4.8c0.4,3.9-0.9,6.8-5.7,7.3
		C31.2,37.9,28.4,35.3,27.9,30.9z M38.4,30.2c0-0.4-0.1-0.7-0.1-0.9L31.1,30c0,0.2,0,0.4,0,0.9c0.2,1.6,1.4,2.8,3.9,2.6
		C37.2,33.2,38.7,32.6,38.4,30.2z"/>
</g>
<path class="st1" d="M41.6,30.1c-0.2-1.9-0.5-3.8-0.6-4.8l-10.1,1.1l-0.7-3.9l2.1-0.4l0.7,3.9l3-0.5l-0.7-3.9l1.9-0.3l0.7,4.1
	l3.1-0.5l-1.4-7.8l-13.3,2.3l1.3,7.5c0.1,1.3,0.2,2.7,0.3,4.1c0.5,4.3,3.3,7,7.9,6.5C40.6,36.9,42,34,41.6,30.1z M35.1,33.4
	c-2.5,0.3-3.8-0.9-3.9-2.6c0-0.4-0.1-0.7,0-0.9l7.2-0.8c0.1,0.3,0.1,0.5,0.1,0.9C38.7,32.6,37.2,33.2,35.1,33.4z"/>
<g>
	<path class="st1" d="M11.8,10.1v5.9c0,2,0.8,3.5,3.7,3.5c2.5,0,4-1.2,4-3.9v-5.6h-2.5v5.7c0,1.1-0.3,1.6-1.4,1.6
		c-1.1,0-1.4-0.5-1.4-1.5v-5.8H11.8z"/>
	<polygon class="st1" points="18.4,9.4 20.9,9.4 20.9,2.4 22.9,2.4 22.9,0.2 16.4,0.2 16.4,2.4 18.4,2.4 	"/>
	<rect x="23.4" y="0.2" class="st1" width="2.5" height="9.2"/>
	<path class="st1" d="M37.9,15.8c0,0.4,0,0.8-0.2,1l2.2-0.4l0.2,1c0.2-0.5,0.3-1.1,0.3-1.7v-5.6h-2.5V15.8z"/>
	<path class="st1" d="M22.7,12.6c0-0.4,0.3-0.6,1-0.6c0.6,0,1.1,0.1,1.6,0.2l0.1-2.2c-0.6-0.1-1.2-0.1-1.7-0.1c-2.4,0-3.8,1.2-3.8,3
		c0,3.2,3.4,2.4,3.4,3.7c0,0.4-0.4,0.7-1,0.7c-0.7,0-1.5-0.2-2-0.3l-0.1,2.3c0.6,0.1,1.3,0.2,1.9,0.2c2.5,0,3.9-1.4,3.9-3.2
		C26.2,13.3,22.7,13.8,22.7,12.6z"/>
	<polygon class="st1" points="26.6,18.7 32,17.8 32,17.1 29.1,17.1 29.1,15.6 31.8,15.6 31.8,13.5 29.1,13.5 29.1,12.2 32,12.2 
		32,10.1 26.6,10.1 	"/>
	<path class="st1" d="M35.2,15.8v-5.8h-2.5v5.9c0,0.6,0.1,1.2,0.3,1.7l2.7-0.5C35.3,16.9,35.2,16.4,35.2,15.8z"/>
	<path class="st1" d="M30.7,9.6c2.6,0,4.7-2,4.7-5C35.4,1.3,33.4,0,31,0c-2.6,0-4.7,2-4.7,4.9C26.4,7.9,27.8,9.6,30.7,9.6z
		 M30.9,2.3c1.2,0,1.8,0.8,1.8,2.4c0,2-1.1,2.5-1.9,2.5c-1.2,0-1.7-1-1.7-2.5C29.1,3,30,2.3,30.9,2.3z"/>
	<path class="st1" d="M47.9,10.1l-1,3.2c-0.2,0.7-0.4,1.4-0.5,2.1h0c-0.1-0.8-0.3-1.4-0.5-2.1l-1-3.2H42l-1.5,9.2H43l0.4-2.9
		c0.1-0.7,0.2-1.4,0.3-2.3h0c0.1,0.9,0.4,1.9,0.6,2.7l0.7,2.4h2.4l0.7-2.7c0.2-0.8,0.4-1.6,0.6-2.4h0c0.1,0.8,0.2,1.5,0.3,2.1
		l0.5,3.1h2.7l-1.5-9.2H47.9z"/>
	<path class="st1" d="M58,7.1h-2.5v-7h-2.5v9.1l-3.1-9.1h-2.9l-3,9.2V0.2h-2.4v3.2c0,0.6,0,1.3,0.1,1.9c-0.3-0.7-0.7-1.6-1.1-2.4
		L39,0.2h-3.3v9.2h2.4V5.6c0-0.6,0-0.9-0.1-1.5c0.2,0.6,0.6,1.4,0.9,2.1l1.5,3.2h3.2h0h2.5l0.5-1.5h2.8l0.5,1.5h2.7h0h5V7.1z
		 M47.4,5.9l0.3-1c0.2-0.6,0.4-1.2,0.5-1.7h0c0.1,0.6,0.3,1.1,0.4,1.6L49,5.9H47.4z"/>
	<path class="st1" d="M3,5.6C3,5,3,4.7,2.9,4.2c0.2,0.6,0.6,1.4,0.9,2.1l1.5,3.2h3.2h0h2.5l0.5-1.5h2.8l0.5,1.5h2.8l-3.2-9.2h-2.9
		l-3,9.2V0.2H6.2v3.2c0,0.6,0,1.3,0.1,1.9C6,4.6,5.5,3.8,5.1,2.9L3.8,0.2H0.6v9.2H3V5.6z M12.5,4.9c0.2-0.6,0.4-1.2,0.5-1.7h0
		c0.1,0.6,0.3,1.1,0.4,1.6l0.4,1.2h-1.6L12.5,4.9z"/>
	<path class="st1" d="M45.5,21.7c-0.3,0.6-0.5,1.1-0.7,1.6h0c-0.1-0.4-0.3-0.9-0.5-1.4l-0.9-2h-2.8l2.9,6.1v3.2h2.5V26l2.9-6h-2.7
		L45.5,21.7z"/>
	<path class="st1" d="M58.4,9.9c-2.6,0-4.7,2-4.7,4.9c0,2.9,1.4,4.7,4.3,4.7c2.6,0,4.7-2,4.7-5C62.7,11.2,60.8,9.9,58.4,9.9z
		 M58.2,17.1c-1.2,0-1.7-1-1.7-2.5c0-1.7,0.9-2.4,1.8-2.4c1.2,0,1.8,0.8,1.8,2.4C60,16.6,59,17.1,58.2,17.1z"/>
	<polygon class="st1" points="68.4,12.2 68.4,10.1 63.2,10.1 63.2,19.3 65.7,19.3 65.7,15.8 68.3,15.8 68.3,13.7 65.7,13.7 
		65.7,12.2 	"/>
	<path class="st1" d="M5.1,27c-1.4,0-2-0.9-2-2.5c0-1.5,0.8-2.3,2-2.3c0.5,0,1.1,0.1,1.5,0.2l0.3-2.3c-0.5-0.1-1.2-0.2-1.8-0.2
		c-3,0-4.8,2-4.8,5.1c0,1.9,0.8,4.4,4.4,4.4c0.7,0,1.5-0.1,2.2-0.3l-0.3-2.3C6.1,26.9,5.5,27,5.1,27z"/>
	<path class="st1" d="M2.9,16.4C3,15.7,3.1,15,3.2,14.1h0C3.4,15,3.6,16,3.8,16.8l0.7,2.4h2.4l0.7-2.7c0.2-0.8,0.4-1.6,0.6-2.4h0
		c0.1,0.8,0.2,1.5,0.3,2.1L9,19.3h2.7l-1.5-9.2H7.4l-1,3.2c-0.2,0.7-0.4,1.4-0.5,2.1h0c-0.1-0.8-0.3-1.4-0.5-2.1l-1-3.2H1.5L0,19.3
		h2.6L2.9,16.4z"/>
	<path class="st1" d="M22.9,19.9l-1,3.2c-0.2,0.7-0.4,1.4-0.5,2.1h0c-0.2-0.8-0.3-1.4-0.5-2.1l-1-3.2H17l-1.5,9.2H18l0.4-2.9
		c0.1-0.7,0.2-1.4,0.3-2.3h0c0.1,0.9,0.4,1.9,0.6,2.7l0.7,2.4h2.4l0.7-2.7c0.2-0.8,0.4-1.6,0.6-2.4h0c0.1,0.8,0.2,1.5,0.3,2.1
		l0.5,3.1h2.7l-1.5-9.2H22.9z"/>
	<path class="st1" d="M11.4,19.7c-2.6,0-4.7,2-4.7,4.9c0,2.9,1.4,4.7,4.3,4.7c2.6,0,4.7-2,4.7-5C15.8,21,13.8,19.7,11.4,19.7z
		 M11.2,27c-1.2,0-1.7-1-1.7-2.5c0-1.7,0.9-2.4,1.8-2.4c1.2,0,1.8,0.8,1.8,2.4C13.1,26.5,12,27,11.2,27z"/>
</g>
</svg>
