<?xml version="1.0" encoding="utf-8"?>
<!-- Generator: Adobe Illustrator 27.0.1, SVG Export Plug-In . SVG Version: 6.00 Build 0)  -->
<svg version="1.1" id="Layer_1" xmlns:serif="http://www.serif.com/"
	 xmlns="http://www.w3.org/2000/svg" xmlns:xlink="http://www.w3.org/1999/xlink" x="0px" y="0px" viewBox="0 0 1920 1080"
	 style="enable-background:new 0 0 1920 1080;" xml:space="preserve">
<style type="text/css">
	.st0{fill:#FFFFFF;}
	.st1{opacity:0.65;}
</style>
<rect x="4" y="1" class="st0" width="1917" height="1077"/>
<g>
	<g>
		<polygon points="148.5,306.4 195.6,306.4 195.6,346 207.2,346 207.2,259.4 195.6,259.4 195.6,296.3 148.5,296.3 148.5,259.4 
			137,259.4 137,346 148.5,346 		"/>
		<path d="M233.8,319.6h33l9.4,26.5h12.1l-31.5-86.5h-12l-33,86.5h12.3L233.8,319.6z M250.7,273.8l12.6,36h-25.9L250.7,273.8z"/>
		<path d="M322.3,339.3c-6.4,0-12.9-1.5-17.8-5.8c-6.5-5.8-6.9-13.4-7-16.7l-12.4,1.6c2,28.6,28.8,29.8,36.6,29.8
			c5.3,0,15.2-0.5,23.5-6.1c7.7-5.3,11-12.9,11-21c0-5.8-2-16.2-15-21.6c-3.4-1.5-7-2.2-13.6-3.8l-9.6-2.5c-7.5-1.7-17-3.9-17-13.5
			c0-9.3,9.2-13.6,19.6-13.6c5.5,0,11,1,15.4,4.2c6.5,4.8,6.9,11.6,7,14.3l11.6-0.7c-0.9-5.3-2.6-14.1-11.2-20.3
			c-7.8-5.8-17.2-6.4-23.3-6.4c-6,0-15.4,0.7-23.2,7.4c-3.3,2.8-8,8.2-8,16.8c0,17.9,18.4,22.1,30.9,24.6l7.2,1.5
			c8.5,1.7,16.4,4.4,16.4,14.5C343.9,333.3,334.6,339.3,322.3,339.3z"/>
		<polygon points="382.6,346 394.3,346 394.3,269.5 420.1,269.5 420.1,259.4 356.6,259.4 356.6,269.5 382.6,269.5 		"/>
		<rect x="424.3" y="259.5" width="11.6" height="86.5"/>
		<polygon points="458.2,275.7 505.7,346 516.1,346 516.1,259.5 505.7,259.5 506.2,328.9 459.2,259.5 448.4,259.5 448.4,346 
			459.2,346 		"/>
		<path d="M570.6,266.8c11.4,0,18.3,4.8,21.7,8.5c3.6,3.7,5,7.6,6,10.2l11.9-3.2c-1.3-2.8-4-8.5-9.8-14c-8.2-7.5-19.1-11-30.2-11
			c-31.5,0-44.7,24.5-44.7,46.6c0,25.6,16.4,44.4,43.1,44.4c11.8,0,24.4-3.8,31.6-14.3V346h9.9v-45.7H570v9.7h30.3
			c0.4,22.9-19.5,28.2-30.2,28.2c-23.5,0-32-19.2-32-35.5C538.1,286.9,546.3,266.8,570.6,266.8z"/>
		<path d="M677,342.1c7.7-5.3,11-12.9,11-21c0-5.8-2-16.2-15-21.6c-3.4-1.5-7-2.2-13.6-3.8l-9.6-2.5c-7.5-1.7-17-3.9-17-13.5
			c0-9.3,9.2-13.6,19.6-13.6c5.5,0,11,1,15.4,4.2c6.5,4.8,6.9,11.6,7,14.3l11.6-0.7c-0.9-5.3-2.6-14.1-11.2-20.3
			c-7.8-5.8-17.2-6.4-23.3-6.4c-6,0-15.4,0.7-23.2,7.4c-3.3,2.8-8,8.2-8,16.8c0,17.9,18.4,22.1,30.9,24.6l7.2,1.5
			c8.5,1.7,16.4,4.4,16.4,14.5c0,11.3-9.3,17.3-21.6,17.3c-6.4,0-12.9-1.5-17.8-5.8c-6.5-5.8-6.9-13.4-7-16.7l-12.4,1.6
			c2,28.6,28.8,29.8,36.6,29.8C658.7,348.2,668.7,347.7,677,342.1z"/>
		<polygon points="276.6,438.3 195,438.3 195,405.3 282.3,405.3 282.3,364.8 137,364.8 137,548.3 195,548.3 195,477.8 276.6,477.8 
					"/>
		<path d="M335.8,364.8l-70.2,183.5H328l8.1-25.5H400l8.1,25.5h62.4l-68.6-183.5H335.8z M348.5,481.7l20-64.7l19.5,64.7H348.5z"/>
		<polygon points="439.2,410 485.7,410 485.7,548.3 543.7,548.3 543.7,410 590.2,410 590.2,364.5 439.2,364.5 		"/>
		<polygon points="629.1,410 675.6,410 675.6,548.3 733.6,548.3 733.6,410 780.1,410 780.1,364.5 629.1,364.5 		"/>
		<path d="M893.9,479.4c0,7.8-0.3,15.9-7,22.4c-3.4,3.1-9.4,6.5-18.4,6.5c-6.8,0-13.8-1.8-18.5-6.8c-6.5-6.2-6.8-14.3-6.8-22.1
			V364.8H785v109.1c0.5,19.2,0.8,39.8,19,57.4c13.5,13,36.9,21.8,63.9,21.8c28.3,0,49.6-9.4,62.9-21.8
			c21.6-20.5,21.6-47.8,21.6-68.9v-97.7h-58.5V479.4z"/>
		<path d="M1429.2,385.8c-21.6-20.3-48.1-20.5-89.1-21h-62.4v115.6c-4.8-38-42.7-44.8-80.8-51.4c-15.9-2.9-25.2-5.2-25.2-14
			c0-9.4,10.9-12,20.8-12c9.4,0,23.4,1.6,34,6.8c8.1,4.2,11.2,8.3,14,12l36.4-30.4c-6.5-6.8-13.3-14-27-20.8
			c-15.1-7.5-34.3-11.7-55.3-11.7c-33,0-63.9,10.7-75.9,37.7c-3.4,7.3-5.2,15.6-5.2,23.6c0,38.7,33,49.1,49.9,53.5
			c7.5,1.8,41.3,7.8,47.8,10.1c10.1,3.4,10.1,10.1,10.1,11.4c0,13.3-22.9,13.8-27.5,13.8c-8.8,0-18.2-1.6-25.7-4.2
			c-15.8-5.2-20.3-12-25.5-20l-36.8,23.6h-82v-36.4h81.3v-39.8h-81.3v-27.3h87.1v-40.3H965.6v183.5h153.1v-14.6
			c7.7,5.6,17.5,10.9,30.4,14.6c14.3,4.2,28.8,5.5,42.6,5.5c10.1,0,47,0,70.2-23.6c7.1-7.3,14-18.3,15.8-33.4v51.6h76.4
			c17.9,0,34.3,0,49.1-4.9c36.9-12.2,51.5-48.9,51.5-87.6C1454.7,429.8,1448.2,403.5,1429.2,385.8z M1382.4,497.6
			c-8.1,7.8-16.1,8.1-24.4,8.6h-22.1v-98.5h21.8c11.4,0.5,26,1,33.8,21.8c2.9,7.5,4.7,16.4,4.7,27
			C1396.2,473.7,1391.3,489.3,1382.4,497.6z"/>
		<path d="M1505.1,364.8l-70.2,183.5h62.4l8.1-25.5h63.9l8.1,25.5h62.4l-68.6-183.5H1505.1z M1517.8,481.7l20-64.7l19.5,64.7H1517.8
			z"/>
		<polygon points="1725.2,364.8 1689.9,425.9 1654,364.8 1586.9,364.8 1660.5,471.1 1660.5,548.3 1718.4,548.3 1718.4,471.1 
			1792.5,364.8 		"/>
	</g>
	<g class="st1">
		<path d="M234.1,633.9c-3.3,14.2-4.2,17.9-6.9,36.1c-2.1-13.3-2.7-16.7-6-31.3l-18.1-68h-66.5V718h44.2v-90.5
			c0-8.3-0.2-10.6-0.8-19.8c3.5,15.4,3.8,15.6,6.9,27.5l22.7,82.8h34.6l24.4-87.4c2.9-10.6,3.3-12.7,5.8-23.8
			c-0.8,12.5-1,15.2-1.2,26.1V718h44.4V570.7h-66.8L234.1,633.9z"/>
		<path d="M463.1,570.7h-46.9v92c0,6.3-0.2,12.7-5.6,17.9c-2.7,2.5-7.5,5.2-14.8,5.2c-5.4,0-11.1-1.5-14.8-5.4
			c-5.2-5-5.4-11.5-5.4-17.7v-92h-46.7v87.6c0.4,15.4,0.6,31.9,15.2,46.1c10.9,10.4,29.6,17.5,51.3,17.5c22.7,0,39.8-7.5,50.5-17.5
			c17.3-16.5,17.3-38.4,17.3-55.3V570.7z"/>
		<path d="M536.1,622.3c-12.7-2.3-20.2-4.2-20.2-11.3c0-7.5,8.8-9.6,16.7-9.6c7.5,0,18.8,1.3,27.3,5.4c6.5,3.3,9,6.7,11.3,9.6
			l29.2-24.4c-5.2-5.4-10.6-11.3-21.7-16.7c-12.1-6.1-27.5-9.4-44.4-9.4c-26.5,0-51.3,8.6-60.9,30.2c-2.7,5.8-4.2,12.5-4.2,19
			c0,31.1,26.5,39.4,40.1,43c6.1,1.5,33.2,6.3,38.4,8.1c8.1,2.7,8.1,8.1,8.1,9.2c0,10.6-18.4,11.1-22.1,11.1
			c-7.1,0-14.6-1.2-20.6-3.3c-12.7-4.2-16.3-9.6-20.4-16.1l-35.7,22.9c6.7,8.1,17.5,21.3,40.9,27.9c11.5,3.3,23.2,4.4,34.2,4.4
			c8.1,0,37.8,0,56.3-19c6.7-6.9,13.1-17.7,13.1-33.2C601.4,633.7,568.9,627.9,536.1,622.3z"/>
		<rect x="601.8" y="570.7" width="46.7" height="147.3"/>
		<path d="M731.5,685c-22.9,0-31.1-20.7-31.1-42.6c0-5.8,0-22.5,11.1-33.2c3.1-3.1,9.6-7.9,19.8-7.9c19.6,0,26.7,15.6,30.5,24.4
			l39-19.4c-3.1-5.8-6.1-10.8-12.3-17.3c-15.4-15.9-36.7-23.8-59-23.8c-49.9,0-76.3,40.3-76.3,79.9c0,37.8,23.8,77.4,76.3,77.4
			c21.1,0,42.1-6.9,57.2-21.7c7.1-7.1,10.6-13.8,14.4-20.9l-39.6-19.2C759.7,665.9,753.2,685,731.5,685z"/>
		<polygon points="850.5,718 897.1,718 897.1,661.5 962.6,661.5 962.6,629.8 897.1,629.8 897.1,603.3 967.1,603.3 967.1,570.7 
			850.5,570.7 		"/>
		<path d="M1221.9,583.7c-3.4-2.8-7.5-5.7-13.1-8.4c-12.1-6.1-27.5-9.4-44.4-9.4c-26.5,0-51.3,8.6-60.9,30.2
			c-2.7,5.8-4.2,12.5-4.2,19c0,31.1,26.5,39.4,40.1,43c6.1,1.5,33.2,6.3,38.4,8.1c8.1,2.7,8.1,8.1,8.1,9.2
			c0,10.6-18.4,11.1-22.1,11.1c-7.1,0-14.6-1.2-20.6-3.3c-12.7-4.2-16.3-9.6-20.4-16.1l-29.5,19h-71v-29.2h65.3V625h-65.3v-21.9
			h69.9v-32.3H975.3V718h122.9v-15.9c6.8,6,16.1,12,29.6,15.9c11.5,3.3,23.2,4.4,34.2,4.4c8.1,0,37.8,0,56.3-19
			c6.7-6.9,13.1-17.7,13.1-33.2c0-36.5-32.5-42.3-65.3-48c-12.7-2.3-20.2-4.2-20.2-11.3c0-7.5,8.8-9.6,16.7-9.6
			c7.5,0,18.8,1.3,27.3,5.4c6.5,3.3,9,6.7,11.3,9.6l20.6-17.2v7.9h37.3v111h46.5V607h37.3v-36.5h-121.2V583.7z"/>
		<rect x="1347.4" y="570.7" width="46.7" height="147.3"/>
		<path d="M1496.8,570.7l-18.6,63.2c-4.2,15-5,18.1-7.7,34.4c-2.3-16.3-3.1-20.6-8.6-39.2l-17.5-58.4h-47.6l49.2,147.3h48.6
			l49.9-147.3H1496.8z"/>
		<path d="M1718.4,680.9V570.5h-46.5v146.8l-54.8-146.6h-53L1507.8,718h50.1l6.5-20.4h51.3l6.5,20.4h49.8h0.2h103.2v-37.1H1718.4z
			 M1574.3,664.6l16.1-51.9l15.6,51.9H1574.3z"/>
	</g>
	<g>
		<path d="M155.1,788.2c-3.6-2.1-8-3.1-12.4-3.1c-2.1,0-3.4,0.2-4.7,0.4l2.2-14.8h22V764h-27.6l-3.7,27.7c2.1-0.3,4.7-0.6,8-0.6
			c11.5,0,16.5,5.3,16.6,12.8c0,7.7-6.3,12.5-13.7,12.5c-5.2,0-10-1.8-12.4-3.2l-2,6c2.8,1.8,8.1,3.6,14.4,3.6
			c12.5,0,21.5-8.4,21.5-19.7C163.4,795.7,159.7,790.7,155.1,788.2z"/>
		<path d="M203.8,761.4c-6.1,0-11.7,0.5-16.4,1.2v58.9c3.9,0.4,8.5,0.7,14,0.7c11.6,0,20.9-3,26.5-8.6c5.6-5.5,8.6-13.5,8.6-23.3
			c0-9.7-3.1-16.6-8.4-21.5C222.8,764,214.9,761.4,203.8,761.4z M202.9,816.1c-3,0-5.9-0.1-7.8-0.4v-47.3c2-0.4,5.1-0.8,9.1-0.8
			c16.4,0,24.3,9,24.3,23.1C228.4,806.8,219.5,816.1,202.9,816.1z"/>
		<path d="M258.8,761.9l-20.3,59.9h8l6.2-18.8h21.2l6.4,18.8h8.3l-20.4-59.9H258.8z M254.3,796.9l5.9-17.3c1.2-3.6,2.1-7.3,3-10.8
			h0.2c0.9,3.5,1.8,7,3.1,10.9l5.9,17.2H254.3z"/>
		<path d="M313.9,778.4c-2.3,4.5-4.4,8.4-6,12.3h-0.2c-1.9-4.2-3.6-7.8-6-12.3l-8.4-16.5h-8.8l18.9,34.5v25.4h7.8v-25.5l20.1-34.4
			h-8.8L313.9,778.4z"/>
		<path d="M353.8,787.8c-8.3-3.2-11.9-6-11.9-11.5c0-4.1,3.1-9,11.3-9c5.4,0,9.4,1.8,11.4,2.8l2.1-6.3c-2.7-1.5-7.1-2.9-13.2-2.9
			c-11.6,0-19.4,6.9-19.4,16.3c0,8.4,6,13.5,15.8,17c8.1,3.1,11.3,6.3,11.3,11.9c0,6-4.6,10.2-12.5,10.2c-5.3,0-10.4-1.8-13.9-3.9
			l-2,6.5c3.2,2.1,9.5,3.8,15.3,3.8c14.1,0,21-8,21-17.2C369.1,796.6,363.9,791.7,353.8,787.8z"/>
		<path d="M415.2,760.9c-16,0-27.8,12.4-27.8,31.4c0,18.1,11.1,30.4,26.9,30.4c15.3,0,27.8-10.9,27.8-31.5
			C442.1,773.4,431.6,760.9,415.2,760.9z M414.8,816.4c-12.2,0-19.1-11.5-19.1-24.3c0-13.1,6.4-25,19.2-25
			c12.9,0,19.1,12.4,19.1,24.3C434,805.1,427,816.4,414.8,816.4z"/>
		<polygon points="451.7,821.7 459.4,821.7 459.4,794.6 482.1,794.6 482.1,788.2 459.4,788.2 459.4,768.3 484,768.3 484,761.9 
			451.7,761.9 		"/>
		<path d="M552.2,761.9l-10.7,29c-2.7,7.6-4.8,14.1-6.3,20.2H535c-1.5-6.2-3.6-12.8-6-20.2l-10.2-29h-9.9l-4.2,59.9h7.4l1.6-25.7
			c0.5-9,1-19,1.2-26.5h0.2c1.7,7.1,4.1,14.8,6.9,23.3l9.7,28.5h5.9l10.6-29.1c3-8.3,5.5-15.7,7.6-22.7h0.3
			c-0.1,7.5,0.4,17.5,0.9,25.9l1.5,26.3h7.6l-3.7-59.9H552.2z"/>
		<path d="M592.9,761.9l-20.3,59.9h8l6.2-18.8H608l6.4,18.8h8.3l-20.4-59.9H592.9z M588.3,796.9l5.9-17.3c1.2-3.6,2.1-7.3,3-10.8
			h0.2c0.9,3.5,1.8,7,3.1,10.9l5.9,17.2H588.3z"/>
		<path d="M655.6,793.2V793c6.3-2.1,11.3-7.4,11.3-15.3c0-4.6-1.7-8.7-4.7-11.4c-3.7-3.4-9.1-4.9-17.3-4.9c-5.3,0-10.9,0.4-14.8,1.2
			v59.1h7.7v-25.9h7.3c7,0.3,10.2,3.4,12,11.6c1.7,7.5,3,12.6,4,14.3h8c-1.2-2.3-2.7-8.1-4.6-16.4
			C663,799.1,660.2,794.8,655.6,793.2z M645.6,789.9h-7.9v-21.9c1.2-0.4,3.9-0.7,7.6-0.7c8.2,0.1,13.8,3.5,13.8,11.2
			C659.1,785.4,653.9,789.9,645.6,789.9z"/>
		<path d="M693.8,761.4c-6.1,0-11.7,0.5-16.4,1.2v58.9c3.9,0.4,8.5,0.7,14,0.7c11.6,0,20.9-3,26.5-8.6c5.6-5.5,8.6-13.5,8.6-23.3
			c0-9.7-3.1-16.6-8.4-21.5C712.9,764,704.9,761.4,693.8,761.4z M693,816.1c-3,0-5.9-0.1-7.8-0.4v-47.3c2-0.4,5.1-0.8,9.1-0.8
			c16.4,0,24.3,9,24.3,23.1C718.5,806.8,709.5,816.1,693,816.1z"/>
		<rect x="736.1" y="761.9" width="7.7" height="59.9"/>
		<path d="M794.5,796.5h12.2v17.9c-1.8,0.9-5.2,1.6-10.3,1.6c-13.9,0-23.1-9-23.1-24.2c0-15,9.5-24.1,24.1-24.1c6,0,10,1.2,13.2,2.6
			l1.9-6.3c-2.6-1.2-8-2.8-14.9-2.8c-20.1,0-32.3,13.1-32.4,30.9c0,9.3,3.2,17.3,8.4,22.3c5.9,5.6,13.3,7.9,22.4,7.9
			c8.1,0,14.9-2,18.4-3.3v-28.8h-19.7V796.5z"/>
		<path d="M851,793.2V793c6.3-2.1,11.3-7.4,11.3-15.3c0-4.6-1.7-8.7-4.7-11.4c-3.7-3.4-9.1-4.9-17.3-4.9c-5.3,0-10.9,0.4-14.8,1.2
			v59.1h7.7v-25.9h7.3c7,0.3,10.2,3.4,12,11.6c1.7,7.5,3,12.6,4,14.3h8c-1.2-2.3-2.7-8.1-4.6-16.4
			C858.4,799.1,855.7,794.8,851,793.2z M841.1,789.9h-7.9v-21.9c1.2-0.4,3.9-0.7,7.6-0.7c8.2,0.1,13.8,3.5,13.8,11.2
			C854.6,785.4,849.3,789.9,841.1,789.9z"/>
		<path d="M889.9,761.9l-20.3,59.9h8l6.2-18.8H905l6.4,18.8h8.3l-20.4-59.9H889.9z M885.4,796.9l5.9-17.3c1.2-3.6,2.1-7.3,3-10.8
			h0.2c0.9,3.5,1.8,7,3.1,10.9l5.9,17.2H885.4z"/>
		<path d="M946.2,787.8c-8.3-3.2-11.9-6-11.9-11.5c0-4.1,3.1-9,11.3-9c5.4,0,9.4,1.8,11.4,2.8l2.1-6.3c-2.7-1.5-7.1-2.9-13.2-2.9
			c-11.6,0-19.4,6.9-19.4,16.3c0,8.4,6,13.5,15.8,17c8.1,3.1,11.3,6.3,11.3,11.9c0,6-4.6,10.2-12.5,10.2c-5.3,0-10.4-1.8-13.9-3.9
			l-2,6.5c3.2,2.1,9.5,3.8,15.3,3.8c14.1,0,21-8,21-17.2C961.5,796.6,956.3,791.7,946.2,787.8z"/>
		<path d="M1007.6,760.9c-16,0-27.8,12.4-27.8,31.4c0,18.1,11.1,30.4,26.9,30.4c15.3,0,27.8-10.9,27.8-31.5
			C1034.5,773.4,1024,760.9,1007.6,760.9z M1007.2,816.4c-12.2,0-19.1-11.5-19.1-24.3c0-13.1,6.4-25,19.2-25
			c12.9,0,19.1,12.4,19.1,24.3C1026.4,805.1,1019.4,816.4,1007.2,816.4z"/>
		<path d="M1081.8,786.9c0,9.3,0.2,16.6,0.9,24.6l-0.2,0.1c-2.8-6.1-6.3-12.4-10.8-19.5l-19.2-30.3h-8.4v59.9h7.3v-25.6
			c0-10-0.2-17.1-0.6-24.7l0.3-0.1c3,6.5,7,13.3,11.2,20l19,30.4h7.8v-59.9h-7.3V786.9z"/>
		<polygon points="1107,768.4 1125.2,768.4 1125.2,821.7 1133,821.7 1133,768.4 1151.3,768.4 1151.3,761.9 1107,761.9 		"/>
		<polygon points="1194.3,786.9 1165.4,786.9 1165.4,761.9 1157.6,761.9 1157.6,821.7 1165.4,821.7 1165.4,793.7 1194.3,793.7 
			1194.3,821.7 1202.1,821.7 1202.1,761.9 1194.3,761.9 		"/>
		<polygon points="1222.6,793.7 1245.9,793.7 1245.9,787.3 1222.6,787.3 1222.6,768.3 1247.2,768.3 1247.2,761.9 1214.9,761.9 
			1214.9,821.7 1248.5,821.7 1248.5,815.3 1222.6,815.3 		"/>
		<path d="M1287.8,787.8c-8.3-3.2-11.9-6-11.9-11.5c0-4.1,3.1-9,11.3-9c5.4,0,9.4,1.8,11.4,2.8l2.1-6.3c-2.7-1.5-7.1-2.9-13.2-2.9
			c-11.6,0-19.4,6.9-19.4,16.3c0,8.4,6,13.5,15.8,17c8.1,3.1,11.3,6.3,11.3,11.9c0,6-4.6,10.2-12.5,10.2c-5.3,0-10.4-1.8-13.9-3.9
			l-2,6.5c3.2,2.1,9.5,3.8,15.3,3.8c14.1,0,21-8,21-17.2C1303.1,796.6,1297.9,791.7,1287.8,787.8z"/>
		<path d="M1336.8,760.9c-16,0-27.8,12.4-27.8,31.4c0,18.1,11.1,30.4,26.9,30.4c15.3,0,27.8-10.9,27.8-31.5
			C1363.7,773.4,1353.2,760.9,1336.8,760.9z M1336.4,816.4c-12.2,0-19.1-11.5-19.1-24.3c0-13.1,6.4-25,19.2-25
			c12.9,0,19.1,12.4,19.1,24.3C1355.6,805.1,1348.6,816.4,1336.4,816.4z"/>
		<path d="M1409.3,797.3c0,13.2-5.7,19.1-14.6,19.1c-8,0-14-5.7-14-19.1v-35.4h-7.8v35.3c0,18.6,9.2,25.6,21.5,25.6
			c13,0,22.7-7.6,22.7-25.9v-34.9h-7.8V797.3z"/>
		<polygon points="1423.4,768.4 1441.6,768.4 1441.6,821.7 1449.4,821.7 1449.4,768.4 1467.7,768.4 1467.7,761.9 1423.4,761.9 		"/>
		<polygon points="1510.7,786.9 1481.8,786.9 1481.8,761.9 1474,761.9 1474,821.7 1481.8,821.7 1481.8,793.7 1510.7,793.7 
			1510.7,821.7 1518.5,821.7 1518.5,761.9 1510.7,761.9 		"/>
		<path d="M1571.2,767.4c5,0,9.2,1.1,12.1,2.5l1.9-6.3c-2-1.1-6.8-2.7-14.2-2.7c-18.6,0-31.3,12.7-31.3,31.4
			c0,19.6,12.7,30.3,29.6,30.3c7.3,0,13-1.4,15.8-2.8l-1.6-6.1c-3.1,1.5-7.9,2.5-12.6,2.5c-14.6,0-23-9.4-23-24.1
			C1547.9,776.3,1557.2,767.4,1571.2,767.4z"/>
		<path d="M1615.2,760.9c-16,0-27.8,12.4-27.8,31.4c0,18.1,11.1,30.4,26.9,30.4c15.3,0,27.8-10.9,27.8-31.5
			C1642.2,773.4,1631.6,760.9,1615.2,760.9z M1614.8,816.4c-12.2,0-19.1-11.5-19.1-24.3c0-13.1,6.4-25,19.2-25
			c12.9,0,19.1,12.4,19.1,24.3C1634,805.1,1627.1,816.4,1614.8,816.4z"/>
		<path d="M1664.8,761.9l-20.3,59.9h8l6.2-18.8h21.2l6.4,18.8h8.3l-20.4-59.9H1664.8z M1660.3,796.9l5.9-17.3
			c1.2-3.6,2.1-7.3,3-10.8h0.2c0.9,3.5,1.8,7,3.1,10.9l5.9,17.2H1660.3z"/>
		<path d="M1721.1,787.8c-8.3-3.2-11.9-6-11.9-11.5c0-4.1,3.1-9,11.3-9c5.4,0,9.4,1.8,11.4,2.8l2.1-6.3c-2.7-1.5-7.1-2.9-13.2-2.9
			c-11.6,0-19.4,6.9-19.4,16.3c0,8.4,6,13.5,15.8,17c8.1,3.1,11.3,6.3,11.3,11.9c0,6-4.6,10.2-12.5,10.2c-5.3,0-10.4-1.8-13.9-3.9
			l-2,6.5c3.2,2.1,9.5,3.8,15.3,3.8c14.1,0,21-8,21-17.2C1736.4,796.6,1731.2,791.7,1721.1,787.8z"/>
		<polygon points="1740,761.9 1740,768.4 1758.2,768.4 1758.2,821.7 1766.1,821.7 1766.1,768.4 1784.4,768.4 1784.4,761.9 		"/>
	</g>
</g>
</svg>
