<?xml version="1.0" encoding="utf-8"?>
<!-- Generator: Adobe Illustrator 27.0.1, SVG Export Plug-In . SVG Version: 6.00 Build 0)  -->
<svg version="1.1" id="Layer_1" xmlns:serif="http://www.serif.com/"
	 xmlns="http://www.w3.org/2000/svg" xmlns:xlink="http://www.w3.org/1999/xlink" x="0px" y="0px" viewBox="0 0 1920 1080"
	 style="enable-background:new 0 0 1920 1080;" xml:space="preserve">
<style type="text/css">
	.st0{fill:#FFFFFF;}
</style>
<rect x="1" y="1" width="1917" height="1077"/>
<path class="st0" d="M960,68c-260.7,0-472,211.3-472,472s211.3,472,472,472s472-211.3,472-472S1220.7,68,960,68L960,68z
	 M919.3,212.3c8.6,0,15.6,7,15.6,15.6s-7,15.6-15.6,15.6s-15.6-7-15.6-15.6S910.6,212.3,919.3,212.3
	C919.2,212.3,919.2,212.3,919.3,212.3z M564.4,450.9c-8.6,0-15.6-7-15.6-15.6s7-15.6,15.6-15.6s15.6,7,15.6,15.6
	C580,443.8,573,450.8,564.4,450.9z M793.7,636.2L778.4,619c-1.3-1.5-1.1-3.7,0.4-4.9c0.2-0.2,0.5-0.4,0.8-0.5l24.2-10.7
	c0.7-0.2,1.4-0.2,2.1,0l42.7,8.7c1.8,0.5,2.9,2.3,2.5,4.2c-0.3,1.2-1.3,2.2-2.5,2.5l-35.5,7.1c-0.5,0.1-1.1,0.4-1.5,0.7l-12.8,10.8
	c-1.4,1.2-3.5,1-4.7-0.4C793.8,636.3,793.8,636.2,793.7,636.2z M881.6,674.9c0,1.9-1.5,3.4-3.3,3.4h-23.6c-1,0-1.9,0.4-2.6,1.2
	l-3.8,4.5c-1.3,1.4-3.4,1.5-4.8,0.3c-0.9-0.8-1.3-2-1.1-3.2c0.4-1.8-0.7-3.6-2.5-4c-0.7-0.2-1.5-0.1-2.2,0.2l-12.2,5.3
	c-1.7,0.7-3.7-0.1-4.5-1.9c-0.4-0.9-0.3-1.8,0-2.7l3.8-8.4c0.6-1.5,0.2-3.2-1.1-4.1l-13.2-9.2c-1.5-1.1-1.9-3.2-0.8-4.8
	c0.3-0.5,0.8-0.8,1.3-1.1l21.3-10.2c0.9-0.4,1.9-0.4,2.8,0l44.6,20.2c1.2,0.6,2,1.8,2,3.1L881.6,674.9z M887.2,711.5l16.4-33.9
	c0.8-1.7,2.7-2.4,4.4-1.7c0.5,0.2,1,0.6,1.3,1.1l24.7,33.3c0.8,1.2,0.8,2.8,0,4.1l-24.6,33.3c-1.1,1.5-3.2,1.8-4.7,0.7
	c-0.4-0.3-0.8-0.7-1-1.2l-16.4-32.7c-0.5-0.9-0.5-2,0-3L887.2,711.5L887.2,711.5z M1013.5,634.8l9.8,2.6c1.8,0.4,3,2.1,2.6,4
	c-0.3,1.3-1.3,2.3-2.6,2.6l-16.8,4c-1.6,0.4-2.7,1.9-2.6,3.6l0.8,9.1c0.2,1.8-1.1,3.5-2.9,3.7c-1.1,0.1-2.1-0.2-2.9-1l-7.7-7.6
	c-1.4-1.3-3.5-1.2-4.8,0.1c-0.6,0.6-0.9,1.5-0.9,2.4l0.8,27.6c0,1.9-1.5,3.4-3.4,3.4c-1.1,0-2.1-0.5-2.8-1.4L952,646.8
	c-0.5-0.7-1.2-1.2-2.1-1.4l-10-2.3c-1.8-0.5-2.9-2.3-2.5-4.1c0.2-1,0.9-1.8,1.9-2.3l85.3-38c1.2-0.5,2.6-0.3,3.6,0.6l12.2,10.9
	c1.4,1.3,1.5,3.5,0.1,4.9c-0.3,0.3-0.6,0.5-0.9,0.7l-26.7,12.7c-1.7,0.8-2.4,2.8-1.7,4.5C1011.9,633.9,1012.6,634.5,1013.5,634.8z
	 M1021.2,573.8l-6.5,10c-0.4,0.7-1.1,1.1-1.8,1.4l-84.1,26.7c-1.8,0.6-3.6-0.4-4.2-2.1c-0.2-0.5-0.2-1-0.1-1.6l1.1-7.6
	c0.2-0.5,0.4-1,0.6-1.5l36.4-49.1c1.1-1.5,3.3-1.8,4.8-0.7c0.6,0.5,1.1,1.2,1.3,1.9l5.9,25.9c0.4,1.8,2.2,2.9,4,2.6l38.9-11.1
	c1.8-0.5,3.6,0.4,4.2,2.2C1021.9,572,1021.8,573,1021.2,573.8z M1062.9,706.4l-41.6,92.4c-0.4,0.9-16.6,21.3-17.5,21.3l-77.6,8.6
	c-1.5,0.5-3.2-0.2-4-1.6l-26.9-51.2c-0.9-1.6-0.2-3.7,1.4-4.5c0.4-0.2,0.9-0.4,1.4-0.4l81.8-5.3c0.7,0,1.4-0.3,1.9-0.8l76-62.6
	c1.5-1.2,3.6-0.9,4.8,0.6c0.8,1,0.9,2.3,0.5,3.4L1062.9,706.4L1062.9,706.4z M1298.8,415.5l-188.9,72.8
	c-0.9,0.4-23.9,59.9-23.9,59.9c-0.2,0.6-0.2,1.2,0,1.8l7.1,56.4c0.2,1.9-1.2,3.5-3.1,3.7c-1.2,0.1-2.4-0.4-3.1-1.4l-56.4-84.2
	c-0.6-0.9-1.7-1.5-2.8-1.5l-75.9,0.9c-1,0-1.9,0.5-2.6,1.3l-61.6,76c-1,1.1-2.6,1.5-4,1c0,0-60.2-29.9-60.6-29.9l-50.7,16.8
	c-1.8,0.3-3.5-1-3.8-2.8c-0.1-0.6,0-1.2,0.2-1.8l24.1-63.1c0.4-1.1,0.2-2.4-0.6-3.3l-59.4-65.7c-0.6-0.7-143.7-21.3-143.7-21.3
	c-1.9-0.1-3.3-1.8-3.2-3.6c0.1-1.4,1.1-2.6,2.5-3l148.4-39.4c0.5-0.1,1-0.1,1.4,0L923,400c0.5,0,44.8-66.9,44.4-67.9l-27.7-83.5
	c-0.7-1.7,0.1-3.7,1.8-4.5c1-0.4,2-0.4,3,0.1l75.4,41.1c1.2,0.6,1.9,1.8,1.8,3.1l31.4,133.6c0,1.5-26.3,18.9-25,19.4l4.2-2.8
	c0.8,0.3,1.6,0.3,2.3,0l78.2-37.4c0,0,13.5-7.1,14.2-7.1l170.8,15.4c1.8,0.4,3,2.2,2.6,4c-0.2,0.9-0.8,1.7-1.6,2.2h0V415.5z
	 M1324.1,427c-8.6,0-15.6-7-15.6-15.6s7-15.6,15.6-15.6s15.6,7,15.6,15.6l0,0c0,8.6-6.9,15.5-15.4,15.6H1324.1z"/>
</svg>
