<?xml version="1.0" encoding="utf-8"?>
<!-- Generator: Adobe Illustrator 27.1.1, SVG Export Plug-In . SVG Version: 6.00 Build 0)  -->
<svg version="1.1" id="Layer_1" xmlns:serif="http://www.serif.com/"
	 xmlns="http://www.w3.org/2000/svg" xmlns:xlink="http://www.w3.org/1999/xlink" x="0px" y="0px" viewBox="0 0 1920 1080"
	 style="enable-background:new 0 0 1920 1080;" xml:space="preserve">
<style type="text/css">
	.st0{fill:#FFFFFF;}
</style>
<rect x="1" y="1" width="1917" height="1077"/>
<path class="st0" d="M1538.9,421.3h189v49.3h-127.4v41.6h116.1V560h-116.1v45.2H1731v52.9h-192.1V421.3z M1149,524.1h57
	c18.5,0,28.8-9.8,28.8-27.7c0-17.5-13.9-25.7-31.3-25.7H1129L1149,524.1z M1268.2,542.1l43.7,116.1h-64.7l-29.8-86.3H1167
	l-56.5-150.5h102.7c41.6,0,83.2,19,83.2,66.8C1296.4,510.2,1286.7,530.2,1268.2,542.1 M1413,610.4c40.1,0,55-35.4,55-70.4
	c0-35.4-15.4-70.4-55-70.4c-40.1,0-55,35.4-55,70.4S1373,610.4,1413,610.4 M1413,416.2c74.5,0,117.1,55,117.1,123.8
	S1488,663.8,1413,663.8c-74.5,0-117.1-55-117.1-123.8C1296.4,471.2,1338.6,416.2,1413,416.2 M1051.9,569.8l26.7-83.2h0.5l26.2,83.2
	H1051.9z M1110.5,421.3h-62.7L979,605.2H860.4V421.3h-61.6v237.3h224l14.9-42.6h82.7l14.4,42.6h64.2L1110.5,421.3z M656.4,560h116.1
	v-47.8H656.4v-41.6h127.4v-49.3H594.3v237.3h192.1v-53.4h-130V560z M452,560h116.1v-47.8H452v-41.6h127.4v-49.3H189v52.9h70.9v183.9
	h61.6V474.3h68.8v183.9h192.1v-52.9H452V560z"/>
</svg>
