<?xml version="1.0" encoding="utf-8"?>
<!-- Generator: Adobe Illustrator 27.1.1, SVG Export Plug-In . SVG Version: 6.00 Build 0)  -->
<svg version="1.1" id="Layer_1" xmlns="http://www.w3.org/2000/svg" xmlns:xlink="http://www.w3.org/1999/xlink" x="0px" y="0px"
	 viewBox="0 0 300.2 48.1" style="enable-background:new 0 0 300.2 48.1;" xml:space="preserve">
<style type="text/css">
	.st0{fill:#FFFFFF;}
</style>
<path class="st0" d="M262.8,1h36.8v9.6h-24.8v8.1h22.6V28h-22.6v8.8h25.4v10.3h-37.4V1z M186.9,21H198c3.6,0,5.6-1.9,5.6-5.4
	c0-3.4-2.7-5-6.1-5H183L186.9,21z M210.1,24.5l8.5,22.6H206l-5.8-16.8h-9.8L179.4,1h20c8.1,0,16.2,3.7,16.2,13
	C215.6,18.3,213.7,22.2,210.1,24.5 M238.3,37.8c7.8,0,10.7-6.9,10.7-13.7c0-6.9-3-13.7-10.7-13.7c-7.8,0-10.7,6.9-10.7,13.7
	S230.5,37.8,238.3,37.8 M238.3,0c14.5,0,22.8,10.7,22.8,24.1s-8.2,24.1-22.8,24.1c-14.5,0-22.8-10.7-22.8-24.1
	C215.6,10.7,223.8,0,238.3,0 M168,29.9l5.2-16.2h0.1l5.1,16.2H168z M179.4,1h-12.2l-13.4,35.8h-23.1V1h-12v46.2h43.6l2.9-8.3h16.1
	l2.8,8.3h12.5L179.4,1z M91,28h22.6v-9.3H91v-8.1h24.8V1H78.9v46.2h37.4V36.8H91V28z M51.2,28h22.6v-9.3H51.2v-8.1H76V1H0v10.3h13.8
	v35.8h12V11.3h13.4v35.8h37.4V36.8H51.2V28z"/>
</svg>
