<?xml version="1.0" encoding="utf-8"?>
<!-- Generator: Adobe Illustrator 27.0.1, SVG Export Plug-In . SVG Version: 6.00 Build 0)  -->
<svg version="1.1" id="Layer_1" xmlns="http://www.w3.org/2000/svg" xmlns:xlink="http://www.w3.org/1999/xlink" x="0px" y="0px"
	 viewBox="0 0 1920 1080" style="enable-background:new 0 0 1920 1080;" xml:space="preserve">
<style type="text/css">
	.st0{fill:#E30520;}
	.st1{opacity:0.14;}
	.st2{fill:#FFFFFF;}
</style>
<rect x="-1" y="-1" class="st0" width="1920" height="1080"/>
<g class="st1">
	<path class="st2" d="M391.6,219.1L542.4-42l98.5,56.9c18.5,10.7,33,23.5,43.4,38.6c10,14.5,14.6,28.7,13.7,42.6
		c-0.9,13.9-4.6,26.5-11.1,37.7c-8.4,14.6-18.4,24.2-29.9,28.8c-11.5,4.6-22.7,7-33.5,7c11.8,13.8,18.3,28.7,19.3,44.7
		c1,16-2.4,30.8-10.2,44.4c-9,15.6-20.9,27.2-35.6,34.7c-14.7,7.5-31.7,9.7-50.8,6.7c-6.9-1.2-14-3.2-21.1-5.9
		c-7.1-2.7-14.2-6.1-21.2-10.2L391.6,219.1z M489.2,200.9l31.7,18.3c10.7,6.2,19.3,9,25.8,8.6c9.7-0.6,17-5.1,21.8-13.5
		c2.7-4.7,4.2-9.7,4.4-14.9c0.2-5.2-0.9-10.2-3.5-14.8c-4.6-6.5-11.1-12.1-19.4-16.9l-31.3-18.1L489.2,200.9z M547.9,99.3l22.7,13.1
		c7,4.1,13.1,6.5,18.3,7.2c5.1,0.7,9.6,0.4,13.3-0.9c3.7-1.3,6.7-3.2,9-5.7c2.3-2.5,4.1-4.9,5.5-7.3c5.9-10.2,5.1-20.3-2.2-30.5
		c-1.6-2-4.2-4.2-7.6-6.7c-3.4-2.5-6.7-4.6-9.8-6.5l-20.7-12L547.9,99.3z"/>
	<path class="st2" d="M702.1,403.6c-15.1-8.7-27.1-19-35.9-30.9c-8.8-11.9-14.7-24.6-17.7-38.4c-3-13.7-3.1-28-0.3-42.9
		c2.8-14.9,8.5-29.6,16.9-44.2c12.5-21.6,28.1-37.8,46.8-48.6c18.8-10.3,37.3-14.4,55.3-12.3c18.1,2.1,34.9,7.7,50.6,16.7
		c22.7,13.1,38.2,29,46.5,47.7c8.9,19.4,11.8,38.5,8.7,57.1c-3.2,19.4-8.8,35.9-16.7,49.8c-8.4,14.6-18.4,26.8-29.8,36.7
		c-11.4,9.9-23.9,17-37.3,21.2c-13.4,4.3-27.5,5.5-42.3,3.7C732.2,417.6,717.2,412.3,702.1,403.6z M731,353.6
		c10.9,6.3,21.6,6.3,31.9-0.1c10.3-6.4,20-17.4,29-33c8.6-14.9,12.8-28.2,12.7-40.1c-0.1-11.9-5.4-20.8-15.8-26.8
		c-10.2-5.9-20.4-5.9-30.7,0c-10.3,5.9-19.8,16.2-28.4,31.1c-9,15.6-13.7,29.6-13.9,41.7C715.5,338.4,720.6,347.5,731,353.6z"/>
	<path class="st2" d="M833.4,474.2l111-192.3l57.5,33.2l-6.7,18c9.2-2,19.5-2.5,31-1.4c11.5,1.1,23.2,5,34.9,11.8
		c20.3,11.7,33.3,27.4,38.8,46.9c5.6,19.5,1,42.1-13.8,67.6l-70.2,121.6l-65.7-37.9l65.9-114.1c5.9-10.2,8.4-19.1,7.5-27
		c-0.9-7.8-5.2-14-13-18.5c-5.7-3.3-11.6-5-17.7-5c-6.1,0-11.8,0.5-17.3,1.5l-77,133.3L833.4,474.2z"/>
	<path class="st2" d="M1162.1,671.2c-11.5-6.6-23.5-15.5-36.2-26.6c-5.8-5.1-10.6-9.7-14.4-13.8c-3.9-4.1-6.7-8-8.5-11.4l48-47.9
		c5.2,7.9,10.4,14.5,15.6,19.9c5.2,5.4,11.2,10.1,18,14c9.1,5.3,17.3,7,24.7,5.1c7.3-1.8,14.6-9,21.8-21.5l100.9-174.7l67.2,38.8
		l-109.2,189.2c-14.9,25.8-33.6,40.7-56.1,44.8C1211.2,691.1,1187.3,685.8,1162.1,671.2z"/>
	<path class="st2" d="M1373.3,791.1c-15.1-8.7-27.1-19-35.9-30.9c-8.8-11.9-14.7-24.6-17.7-38.4c-3-13.7-3.1-28-0.3-42.9
		c2.8-14.9,8.5-29.6,16.9-44.2c12.5-21.6,28.1-37.8,46.8-48.6c18.8-10.3,37.3-14.4,55.3-12.4c18.1,2.1,34.9,7.7,50.6,16.7
		c22.7,13.1,38.2,29,46.5,47.7c8.9,19.4,11.8,38.5,8.7,57.1c-3.2,19.4-8.8,35.9-16.7,49.8c-8.4,14.6-18.4,26.8-29.8,36.7
		c-11.4,9.9-23.9,17-37.3,21.2c-13.4,4.3-27.5,5.5-42.3,3.7C1403.3,805,1388.4,799.8,1373.3,791.1z M1402.1,741
		c10.9,6.3,21.6,6.3,31.9-0.1c10.3-6.4,20-17.4,29-33c8.6-14.9,12.8-28.2,12.7-40.1c-0.1-11.9-5.4-20.8-15.8-26.8
		c-10.2-5.9-20.4-5.9-30.7,0c-10.3,5.9-19.8,16.2-28.4,31.1c-9,15.6-13.7,29.5-13.9,41.7C1386.6,725.9,1391.7,735,1402.1,741z"/>
	<path class="st2" d="M1558.1,892.6l30.5-238.8l71.5,41.3l-27.8,136.6l102.9-93.3l67.6,39L1614,924.8L1558.1,892.6z"/>
	<path class="st2" d="M1711.3,981l111-192.3l64.9,37.5l-111,192.3L1711.3,981z M1864.2,792c-10.9-6.3-17.8-13.9-20.5-22.8
		c-2.7-8.9-1.4-17.8,3.8-27c5-8.6,12.1-14.2,21.4-16.8c9.3-2.6,19.5-0.8,30.4,5.6s17.6,14.2,20,23.5c2.4,9.4,1.1,18.4-3.8,27
		c-5.3,9.1-12.4,14.7-21.4,16.8C1885.1,800.5,1875.1,798.4,1864.2,792z"/>
</g>
<g class="st1">
	<path class="st2" d="M-238.4,543.1L-87.6,282l98.5,56.9c18.5,10.7,33,23.5,43.4,38.6c10,14.5,14.6,28.7,13.7,42.6
		c-0.9,13.9-4.6,26.5-11.1,37.7c-8.4,14.6-18.4,24.2-29.9,28.8c-11.5,4.6-22.7,7-33.5,7c11.8,13.8,18.3,28.7,19.3,44.7
		c1,16-2.4,30.8-10.2,44.4c-9,15.6-20.9,27.2-35.6,34.7c-14.7,7.5-31.7,9.7-50.8,6.7c-6.9-1.2-14-3.2-21.1-5.9
		c-7.1-2.7-14.2-6.1-21.2-10.2L-238.4,543.1z M-140.8,524.9l31.7,18.3c10.7,6.2,19.3,9,25.8,8.6c9.7-0.6,17-5.1,21.8-13.5
		c2.7-4.7,4.2-9.7,4.4-14.9c0.2-5.2-0.9-10.2-3.5-14.8c-4.6-6.5-11.1-12.1-19.4-16.9l-31.3-18.1L-140.8,524.9z M-82.1,423.3
		l22.7,13.1c7,4.1,13.1,6.5,18.3,7.2c5.1,0.7,9.6,0.4,13.3-0.9c3.7-1.3,6.7-3.2,9-5.7c2.3-2.5,4.1-4.9,5.5-7.3
		c5.9-10.2,5.1-20.3-2.2-30.5c-1.6-2-4.2-4.2-7.6-6.7c-3.4-2.5-6.7-4.6-9.8-6.5l-20.7-12L-82.1,423.3z"/>
	<path class="st2" d="M72.1,727.6c-15.1-8.7-27.1-19-35.9-30.9c-8.8-11.9-14.7-24.6-17.7-38.4c-3-13.7-3.1-28-0.3-42.9
		c2.8-14.9,8.5-29.6,16.9-44.2c12.5-21.6,28.1-37.8,46.8-48.6c18.8-10.3,37.3-14.4,55.3-12.3c18.1,2.1,34.9,7.7,50.6,16.7
		c22.7,13.1,38.2,29,46.5,47.7c8.9,19.4,11.8,38.5,8.7,57.1c-3.2,19.4-8.8,35.9-16.7,49.8c-8.4,14.6-18.4,26.8-29.8,36.7
		c-11.4,9.9-23.9,17-37.3,21.2c-13.4,4.3-27.5,5.5-42.3,3.7C102.2,741.6,87.2,736.3,72.1,727.6z M101,677.6
		c10.9,6.3,21.6,6.3,31.9-0.1c10.3-6.4,20-17.4,29-33c8.6-14.9,12.8-28.2,12.7-40.1c-0.1-11.9-5.4-20.8-15.8-26.8
		c-10.2-5.9-20.4-5.9-30.7,0c-10.3,5.9-19.8,16.2-28.4,31.1c-9,15.6-13.7,29.5-13.9,41.7C85.5,662.4,90.6,671.5,101,677.6z"/>
	<path class="st2" d="M281.8,849.2c-16.4-9.5-30.4-19.6-42-30.2c-11.6-10.7-21.5-21.4-29.9-32.1L354.1,537l65.3,37.7l-40.2,69.6
		c11.9,2.3,24.6,7.4,38.1,15.2c9.1,5.3,17,11.5,23.5,18.8c6.6,7.3,11.8,15.1,15.6,23.6c3.8,8.5,6.3,17.3,7.4,26.4
		c1.1,9.2,0.7,18.2-1.3,27.1c-4.1,19.2-9.9,35.3-17.5,48.3c-10.2,17.7-21.7,31.6-34.3,41.7c-12.6,10.1-26.1,16.8-40.3,20.2
		c-14.3,3.4-28.9,3.6-43.9,0.7C311.6,863.5,296.6,857.7,281.8,849.2z M312.7,799.3c10.9,6.3,22.3,7.3,34,3
		c11.7-4.4,22.5-15.1,32.5-32.3c9.5-16.4,13.1-30.5,10.8-42.2c-2.3-11.7-8.5-20.5-18.6-26.4c-6-3.5-12.9-5.9-20.8-7.3l-53.7,93
		C304.5,793.5,309.8,797.6,312.7,799.3z"/>
	<path class="st2" d="M598.8,1028.6l35.5-174.4l-89,141.5l-63.7-36.8l162.9-254.1l74.3,42.9l-44.5,206.2l152.4-143.9l73.1,42.2
		l-136.3,269.5l-62.2-35.9l74.6-150.8l-128.2,121.9L598.8,1028.6z"/>
	<path class="st2" d="M849.6,1175.5c-8.3-4.8-15.3-10.6-21-17.3c-5.7-6.7-9.6-14.2-11.9-22.3c-2.3-8.1-2.9-16.5-1.8-25.3
		c1.1-8.8,4.2-17.7,9.5-26.8c5.6-10.3,12.6-18,21.1-23c8.5-5,17.3-8.2,26.7-9.6c9.3-1.4,18.4-1.2,27.4,0.4
		c8.9,1.7,16.7,4.1,23.2,7.2c3.9,1.6,9.5,3.9,16.8,7.1c7.2,3.1,16.1,7.4,26.5,12.7l3.8-6.6c8.3-14.3,4.5-26.1-11.4-35.3
		c-7.6-4.4-15.8-7.5-24.8-9.4c-9-1.9-18.2-2.8-27.6-2.7l5.2-52.3c3.9-0.2,8.4,0,13.3,0.4c5,0.4,10.6,1.2,16.8,2.4
		c13.2,2.4,24.3,5.3,33.2,8.8c9,3.4,16.3,6.8,22,10.1c23.7,13.7,39.1,30.7,46.1,51.1c7,20.4,3.1,43.3-11.6,68.9l-70.2,121.6
		l-54.7-31.6l3.5-17.8c-8.1,1.9-17.3,2.3-27.7,1C871.6,1185.8,860.8,1181.9,849.6,1175.5z M898.3,1142.6c4.4,2.6,9.1,4.2,14.1,5
		c4.9,0.8,9.5,0.8,13.7,0.1l20.3-35.2c-7.2-3.1-12.8-5.6-16.7-7.3c-3.9-1.7-6.4-2.7-7.6-3.1c-8.5-2.8-15.4-3.1-20.9-0.8
		c-5.5,2.2-9.9,6.3-13.4,12.3c-2.9,5-3.5,10.1-1.8,15.4C887.7,1134.3,891.8,1138.8,898.3,1142.6z"/>
	<path class="st2" d="M1001.6,1259l111-192.3l57.9,33.4l-7.4,21.8c7.4-2.7,16.3-4.2,26.5-4.8c10.2-0.5,20.8,2.4,31.7,8.7
		c4.4,2.6,8.7,5.4,12.7,8.7c4.1,3.2,7.1,6.3,9.3,9.3l-38.7,49c-6.4-6.4-12.7-11.5-18.9-15.1c-7.8-4.5-16.4-6.4-25.6-5.7
		c-9.3,0.7-17.2,2.2-23.6,4.3l-69.5,120.4L1001.6,1259z"/>
</g>
<g class="st1">
	<path class="st2" d="M1295,120.5c-19.3-11.1-34.2-24.5-44.8-40.2c-10.6-15.7-17.3-32.5-20-50.6c-2.8-18.1-1.8-36.8,2.8-56.3
		c4.6-19.4,12.2-38.4,22.9-56.9c16.4-28.4,36.3-50.3,59.7-65.6c23.8-15.4,47.6-22.3,71.4-20.8c24.3,1.9,45.8,8.2,64.6,19
		c27.9,16.1,47,37.2,57.3,63.3c10.7,25.3,13.1,50.5,7,75.4c-4.9,23.6-13,45.1-24.3,64.7c-10.7,18.5-23.3,34.6-37.8,48.3
		c-14.5,13.7-30.3,23.9-47.3,30.5c-17.1,6.7-35,9.3-53.9,8C1333.8,138.1,1314.6,131.8,1295,120.5z M1329.1,61.5
		c8.8,5.8,17.8,8,27.1,6.8c9.2-1.3,18-4.6,26.4-10c8.3-5.4,16-12.3,23.1-20.6c7-8.3,12.8-16.5,17.2-24.8
		c8.8-14.7,14.3-28.1,16.5-40.3c2.1-12.1,2.3-22.7,0.6-31.7c-1.8-9-4.8-16.4-9.1-22.2c-4.3-5.8-8.6-9.4-13-10.9
		c-13.4-8.1-26.9-9.3-40.6-3.7c-6.9,3-13.1,6.6-18.6,10.9c-5.5,4.3-10.3,8.9-14.7,13.7s-8.1,9.6-11.2,14.4
		c-3.1,4.8-5.8,9.2-8.1,13.1c-6.3,10.9-11.2,21.8-14.6,32.5c-3.4,10.7-5.1,20.6-4.9,29.7c0.1,9.1,2.1,17.4,6,24.8
		C1315,50.8,1321,56.8,1329.1,61.5z"/>
	<path class="st2" d="M1495,232.8c-8.3-4.8-15.3-10.6-21-17.3c-5.7-6.7-9.6-14.2-11.9-22.3c-2.3-8.1-2.9-16.5-1.8-25.3
		c1.1-8.8,4.2-17.7,9.5-26.8c5.6-10.3,12.6-18,21.1-23c8.5-5,17.3-8.2,26.7-9.6c9.3-1.4,18.4-1.2,27.4,0.4
		c8.9,1.7,16.7,4.1,23.2,7.2c3.9,1.6,9.5,3.9,16.8,7.1c7.2,3.1,16.1,7.4,26.5,12.7l3.8-6.6c8.3-14.3,4.5-26.1-11.4-35.3
		c-7.6-4.4-15.8-7.5-24.8-9.4c-9-1.9-18.2-2.8-27.6-2.7l5.2-52.3c3.9-0.2,8.4,0,13.3,0.4c5,0.4,10.6,1.2,16.8,2.4
		c13.2,2.4,24.3,5.3,33.2,8.8c9,3.4,16.3,6.8,22,10.1c23.7,13.7,39.1,30.7,46.1,51.1c7,20.4,3.1,43.3-11.6,68.9l-70.2,121.6
		l-54.7-31.6l3.5-17.8c-8.1,1.9-17.3,2.3-27.7,1C1516.9,243.2,1506.2,239.3,1495,232.8z M1543.6,200c4.4,2.6,9.1,4.2,14.1,5
		c4.9,0.8,9.5,0.8,13.7,0.1l20.3-35.2c-7.2-3.1-12.8-5.6-16.7-7.3c-3.9-1.7-6.4-2.7-7.6-3.1c-8.5-2.8-15.4-3.1-20.9-0.8
		c-5.5,2.2-9.9,6.4-13.4,12.3c-2.9,5-3.5,10.1-1.8,15.4C1533.1,191.7,1537.1,196.2,1543.6,200z"/>
	<path class="st2" d="M1715.4,361.1c-10.2-5.9-19.3-12.2-27.4-18.9c-8.1-6.8-15-13.4-20.8-19.9c-5.8-6.5-10.5-12.6-14-18.2
		c-3.5-5.7-6-10.3-7.4-13.9l45.7-33.1c2,5,4.5,10.2,7.7,15.6c3.1,5.4,7.1,10.9,11.9,16.5c9.1,10.8,19.3,19.5,30.8,26.1
		c6,3.5,11.7,5.7,17,6.7c5.3,1,9.4-1,12.3-5.9c3.9-6.8-2.6-18.4-19.6-34.7c-10.7-10.3-19.5-19.9-26.4-28.8
		c-6.9-8.8-11.9-17.4-14.9-25.6c-3.1-8.2-4.1-16.4-3-24.6c1.1-8.2,4.3-16.9,9.5-26c5.8-11.2,13.6-19.3,23.4-24.3
		c9.8-4.9,20.2-7.6,31.1-7.8c10.9-0.3,22,1.3,33.2,4.8c11.2,3.5,21.1,7.9,29.8,13.3c18.8,10.8,32.7,22,42,33.4
		c9.2,11.4,16.5,22.5,21.8,33.2l-43.5,30.2c-2.4-4.9-5.3-9.8-8.6-14.9c-3.3-5.1-7-9.9-10.9-14.6c-3.9-4.7-7.8-8.9-11.8-12.5
		c-4-3.7-7.9-6.6-11.8-8.9c-6-3.5-11.8-5.9-17.3-7.4c-5.6-1.5-9.8,0.3-12.6,5.2c-2.9,5-2.2,10.6,2,16.8c4.2,6.3,11.1,13.7,20.7,22.4
		c15.9,15.8,27.2,30.5,34,44.1c3.3,6.4,5.3,12.4,6.1,17.9c0.8,5.5,1,10.6,0.5,15.4c-0.5,4.8-1.6,9.2-3.2,13.3
		c-1.7,4.1-3.5,7.8-5.4,11.2c-9.6,16.7-22.3,27.1-37.9,31.3c-14.4,3.9-28.6,3.8-42.7-0.1C1741.5,374.2,1728.1,368.5,1715.4,361.1z"
		/>
	<path class="st2" d="M1834.9,424.9l111-192.3l64.9,37.5l-111,192.3L1834.9,424.9z M1987.8,235.9c-10.9-6.3-17.8-13.9-20.5-22.8
		c-2.7-8.9-1.4-17.8,3.8-27c5-8.6,12.1-14.2,21.4-16.8c9.3-2.6,19.5-0.8,30.4,5.6s17.6,14.2,20,23.5c2.4,9.4,1.1,18.4-3.8,27
		c-5.3,9.1-12.4,14.7-21.4,16.8C2008.7,244.4,1998.7,242.2,1987.8,235.9z"/>
</g>
<g class="st1">
	<path class="st2" d="M714.4,27.3l48.8-84.5l-29.2-16.8l14.7-25.5l86.4,49.9l-14.7,25.5l-28.8-16.7l-48.8,84.5L714.4,27.3z"/>
	<path class="st2" d="M782,66.3l63.6-110.1l27.5,15.9L853.8,5.5c3.3-0.3,6.9-0.2,10.9,0.5c4,0.6,8.3,2.3,13,5
		c9.7,5.6,15.3,12.5,16.9,20.8c1.6,8.3-0.5,17.4-6.2,27.4l-29.7,51.4l-27.5-15.9l27.8-48.1c2.7-4.6,3.7-8.5,3.2-11.7
		c-0.5-3.2-2.2-5.6-5.1-7.2c-2.4-1.4-5-2.1-7.7-2.3c-2.7-0.1-5.1,0-7.3,0.4l-32.5,56.4L782,66.3z"/>
	<path class="st2" d="M911.8,143.4c-5.8-3.4-10.7-7.3-14.6-11.8c-3.9-4.5-6.7-9.6-8.3-15.2c-1.6-5.6-1.9-11.6-0.9-18.1
		c1-6.4,3.6-13.2,7.7-20.4c5.6-9.7,12.4-16.7,20.4-21.2c8.1-4.6,15.9-6.3,23.6-5.1c7.2,0.9,13.7,3.1,19.6,6.5
		c11.4,6.6,18.2,15.8,20.3,27.6c2.1,11.8-1.4,25.8-10.6,42L919.4,99c-2.6,5.1-3.3,9.8-1.9,14.1c1.4,4.3,4.9,8.1,10.5,11.3
		c4.6,2.7,8.9,4,13,4.1c4.1,0.1,8.3-0.3,12.7-1.1l-3.2,24.1c-2.7,0.9-5.9,1.3-9.5,1c-3.6-0.2-7.2-0.8-10.9-1.7
		c-3.7-0.9-7.1-2-10.4-3.3C916.5,146.3,913.8,144.9,911.8,143.4z M928.4,83.8l23.7,13.7c2.2-4.3,3-8.4,2.4-12.3
		c-0.6-3.9-2.5-6.7-5.7-8.6c-3.4-2-6.9-2.3-10.6-1.1C934.5,76.8,931.2,79.6,928.4,83.8z"/>
	<path class="st2" d="M990.5,186.6L1054,76.7l28.2,16.3l-24.7,42.8l7.1,4.1c2.1,1.2,4.3,1.8,6.5,1.7c2.2-0.1,5.2-1.6,8.8-4.7
		l32-26.8l31.1,18l-38.6,29.1c-3.7,2.8-7.3,4.7-10.7,5.6c-3.4,0.9-6.7,1-9.9,0.3c2.4,3.2,4,6.5,4.7,10.1c0.7,3.6,0.7,7.7,0.1,12.5
		l-6.8,53.6l-31.5-18.2l5.7-35c0.9-5.3,1.1-9.6,0.6-12.6c-0.5-3.1-2.3-5.5-5.5-7.4l-8.4-4.9l-24,41.5L990.5,186.6z"/>
	<path class="st2" d="M1093,245.8l46.8-81.1l27.4,15.8l-46.8,81.1L1093,245.8z M1157.5,166.1c-4.6-2.7-7.5-5.9-8.6-9.6
		c-1.1-3.7-0.6-7.5,1.6-11.4c2.1-3.6,5.1-6,9-7.1c3.9-1.1,8.2-0.3,12.8,2.3c4.6,2.7,7.4,6,8.4,9.9c1,4,0.5,7.7-1.6,11.4
		c-2.2,3.8-5.2,6.2-9,7.1C1166.3,169.7,1162.1,168.8,1157.5,166.1z"/>
	<path class="st2" d="M1138.5,272.1l46.8-81.1l24.2,14l-2.8,7.6c3.9-0.8,8.2-1,13.1-0.6c4.9,0.5,9.8,2.1,14.7,5
		c8.6,4.9,14,11.5,16.4,19.8c2.3,8.2,0.4,17.7-5.8,28.5l-29.6,51.3l-27.7-16l27.8-48.1c2.5-4.3,3.5-8.1,3.2-11.4
		c-0.4-3.3-2.2-5.9-5.5-7.8c-2.4-1.4-4.9-2.1-7.5-2.1c-2.6,0-5,0.2-7.3,0.6L1166,288L1138.5,272.1z"/>
	<path class="st2" d="M1232.6,326.4l63.5-109.9l27.5,15.9l-31.6,54.7l2,1.1c2,1.1,4.2,1.6,6.6,1.4c2.4-0.2,5.5-1.8,9.4-4.7
		l16.4-12.5l29,16.7l-24.5,17.7c-2.7,1.9-5.4,3.4-8,4.3c-2.6,0.9-5.7,1.1-9.4,0.6c2.6,2.3,4.4,4.9,5.1,8c0.8,3.1,0.9,6.5,0.3,10.3
		l-5.8,42.8l-29.2-16.8l3.3-24.7c0.3-3.6,0.5-6.5,0.4-8.7c-0.1-2.2-0.3-3.8-0.7-5c-0.4-1.2-1-2.1-1.9-2.8c-0.8-0.7-1.8-1.4-2.9-2
		l-3.8-2.2l-18.3,31.6L1232.6,326.4z"/>
	<path class="st2" d="M1351.6,397.3c-4.3-2.5-8.1-5.1-11.5-8c-3.4-2.8-6.3-5.6-8.8-8.4c-2.5-2.7-4.4-5.3-5.9-7.7s-2.5-4.3-3.1-5.9
		l19.3-13.9c0.8,2.1,1.9,4.3,3.2,6.6c1.3,2.3,3,4.6,5,7c3.8,4.5,8.1,8.2,13,11c2.5,1.5,4.9,2.4,7.2,2.8c2.2,0.4,4-0.4,5.2-2.5
		c1.6-2.9-1.1-7.7-8.2-14.6c-4.5-4.4-8.2-8.4-11.1-12.1c-2.9-3.7-5-7.3-6.3-10.8c-1.3-3.5-1.7-6.9-1.3-10.4c0.5-3.5,1.8-7.1,4-11
		c2.4-4.7,5.7-8.2,9.9-10.2c4.1-2.1,8.5-3.2,13.1-3.3c4.6-0.1,9.3,0.6,14,2c4.7,1.5,8.9,3.3,12.6,5.6c7.9,4.6,13.8,9.3,17.7,14.1
		c3.9,4.8,6.9,9.5,9.2,14l-18.3,12.7c-1-2-2.2-4.1-3.6-6.3s-2.9-4.2-4.6-6.2c-1.6-2-3.3-3.7-5-5.3c-1.7-1.5-3.3-2.8-5-3.8
		c-2.5-1.5-5-2.5-7.3-3.1c-2.4-0.6-4.1,0.1-5.3,2.2c-1.2,2.1-0.9,4.5,0.9,7.1c1.8,2.6,4.7,5.8,8.7,9.4c6.7,6.7,11.5,12.9,14.3,18.6
		c1.4,2.7,2.2,5.2,2.6,7.5c0.3,2.3,0.4,4.5,0.2,6.5c-0.2,2-0.7,3.9-1.4,5.6c-0.7,1.7-1.5,3.3-2.3,4.7c-4.1,7-9.4,11.4-16,13.2
		c-6.1,1.6-12.1,1.6-18-0.1C1362.6,402.8,1357,400.4,1351.6,397.3z"/>
</g>
<g class="st1">
	<path class="st2" d="M858.4,735.3l48.8-84.5l-29.2-16.8l14.7-25.5l86.4,49.9l-14.7,25.5l-28.8-16.7l-48.8,84.5L858.4,735.3z"/>
	<path class="st2" d="M926.5,774.6l46.8-81.1l27.4,15.8l-46.8,81.1L926.5,774.6z M991,694.9c-4.6-2.7-7.5-5.9-8.6-9.6
		c-1.1-3.7-0.6-7.5,1.6-11.4c2.1-3.6,5.1-6,9-7.1c3.9-1.1,8.2-0.3,12.8,2.3c4.6,2.7,7.4,6,8.4,9.9c1,4,0.5,7.7-1.6,11.4
		c-2.2,3.8-5.2,6.2-9,7.1C999.8,698.4,995.6,697.5,991,694.9z"/>
	<path class="st2" d="M972,800.8l46.8-81.1l24.2,14l-2.8,7.6c3.9-0.8,8.2-1,13.1-0.6c4.9,0.5,9.8,2.1,14.7,5
		c8.6,4.9,14,11.5,16.4,19.8c2.3,8.2,0.4,17.7-5.8,28.5l-29.6,51.3l-27.7-16l27.8-48.1c2.5-4.3,3.5-8.1,3.2-11.4
		c-0.4-3.3-2.2-5.9-5.5-7.8c-2.4-1.4-4.9-2.1-7.5-2.1c-2.6,0-5,0.2-7.3,0.6l-32.4,56.2L972,800.8z"/>
	<path class="st2" d="M1085.4,868.1c-3.5-2-6.5-4.5-8.9-7.3c-2.4-2.8-4.1-6-5-9.4c-1-3.4-1.2-7-0.8-10.7c0.4-3.7,1.8-7.5,4-11.3
		c2.4-4.3,5.3-7.6,8.9-9.7c3.6-2.1,7.3-3.5,11.2-4.1c3.9-0.6,7.8-0.5,11.5,0.2c3.8,0.7,7,1.7,9.8,3c1.7,0.7,4,1.7,7.1,3
		c3,1.3,6.8,3.1,11.2,5.4l1.6-2.8c3.5-6,1.9-11-4.8-14.9c-3.2-1.8-6.7-3.2-10.5-4c-3.8-0.8-7.7-1.2-11.7-1.1l2.2-22
		c1.7-0.1,3.5,0,5.6,0.2c2.1,0.2,4.5,0.5,7.1,1c5.6,1,10.2,2.2,14,3.7c3.8,1.5,6.9,2.9,9.3,4.3c10,5.8,16.5,13,19.4,21.5
		c3,8.6,1.3,18.3-4.9,29l-29.6,51.3l-23.1-13.3l1.5-7.5c-3.4,0.8-7.3,1-11.7,0.4C1094.7,872.4,1090.2,870.8,1085.4,868.1z
		 M1106,854.2c1.9,1.1,3.8,1.8,5.9,2.1c2.1,0.3,4,0.3,5.8,0l8.6-14.8c-3-1.3-5.4-2.3-7-3.1c-1.6-0.7-2.7-1.2-3.2-1.3
		c-3.6-1.2-6.5-1.3-8.8-0.4c-2.3,0.9-4.2,2.7-5.6,5.2c-1.2,2.1-1.5,4.2-0.8,6.5C1101.5,850.7,1103.2,852.6,1106,854.2z"/>
	<path class="st2" d="M1197.9,931.3l48.8-84.5l-29.2-16.8l14.7-25.5l86.4,49.9l-14.7,25.5l-28.8-16.7l-48.8,84.5L1197.9,931.3z"/>
	<path class="st2" d="M1280.6,981.4c-9-5.2-14.5-11.9-16.6-20.2c-2-8.3-0.1-17.6,5.9-27.9l29.7-51.4l27.7,16l-27.7,48
		c-2.4,4.2-3.5,7.8-3.4,11c0.2,3.2,1.9,5.7,5.3,7.7c2.7,1.6,5.4,2.4,7.9,2.5c2.5,0.1,4.8-0.1,6.7-0.4l32.5-56.4l27.7,16l-46.8,81.1
		l-24.1-13.9l2.4-7.6c-4.1,1-8.5,1.2-13.3,0.6C1289.9,985.7,1285.2,984.1,1280.6,981.4z"/>
	<path class="st2" d="M1347.1,1017.4l46.8-81.1l24.4,14.1l-3.1,9.2c3.1-1.1,6.9-1.8,11.2-2c4.3-0.2,8.8,1,13.4,3.7
		c1.9,1.1,3.7,2.3,5.4,3.6c1.7,1.4,3,2.7,3.9,3.9l-16.3,20.7c-2.7-2.7-5.3-4.8-8-6.4c-3.3-1.9-6.9-2.7-10.8-2.4
		c-3.9,0.3-7.2,0.9-10,1.8l-29.3,50.8L1347.1,1017.4z"/>
	<path class="st2" d="M1411.2,1054.4l46.8-81.1l24.2,14l-2.8,7.6c3.9-0.8,8.2-1,13.1-0.6c4.9,0.5,9.8,2.1,14.7,5
		c8.6,4.9,14,11.5,16.4,19.8c2.3,8.2,0.4,17.7-5.8,28.5l-29.6,51.3l-27.7-16l27.8-48.1c2.5-4.3,3.5-8.1,3.2-11.4
		c-0.4-3.3-2.2-5.9-5.5-7.8c-2.4-1.4-4.9-2.1-7.5-2.1c-2.6,0-5,0.2-7.3,0.6l-32.4,56.2L1411.2,1054.4z"/>
	<path class="st2" d="M1541.3,1131.7c-5.8-3.4-10.7-7.3-14.6-11.8c-3.9-4.5-6.7-9.6-8.3-15.2c-1.6-5.6-1.9-11.6-0.9-18.1
		c1-6.4,3.6-13.2,7.7-20.4c5.6-9.7,12.4-16.7,20.4-21.2c8.1-4.6,15.9-6.3,23.6-5.1c7.2,0.9,13.7,3.1,19.6,6.5
		c11.4,6.6,18.2,15.8,20.3,27.6c2.1,11.8-1.4,25.8-10.6,42l-49.6-28.6c-2.6,5.1-3.3,9.8-1.9,14.1c1.4,4.3,4.9,8.1,10.5,11.3
		c4.6,2.7,8.9,4,13,4.1c4.1,0.1,8.3-0.3,12.7-1.1l-3.2,24.1c-2.7,0.9-5.9,1.3-9.5,1c-3.6-0.2-7.2-0.8-10.9-1.7
		c-3.7-0.9-7.1-2-10.4-3.3C1546,1134.6,1543.3,1133.2,1541.3,1131.7z M1557.9,1072.1l23.7,13.7c2.2-4.3,3-8.4,2.4-12.3
		s-2.5-6.7-5.7-8.6c-3.4-2-6.9-2.3-10.6-1.1C1564,1065.1,1560.8,1067.9,1557.9,1072.1z"/>
	<path class="st2" d="M1591.5,1158.5l46.8-81.1l24.4,14.1l-3.1,9.2c3.1-1.1,6.9-1.8,11.2-2c4.3-0.2,8.8,1,13.4,3.7
		c1.9,1.1,3.7,2.3,5.4,3.6c1.7,1.4,3,2.7,3.9,3.9l-16.3,20.7c-2.7-2.7-5.3-4.8-8-6.4c-3.3-1.9-6.9-2.7-10.8-2.4
		c-3.9,0.3-7.2,0.9-10,1.8l-29.3,50.8L1591.5,1158.5z"/>
</g>
</svg>
