<?xml version="1.0" encoding="utf-8"?>
<!-- Generator: Adobe Illustrator 27.0.1, SVG Export Plug-In . SVG Version: 6.00 Build 0)  -->
<svg version="1.1" id="Capa_1" xmlns="http://www.w3.org/2000/svg" xmlns:xlink="http://www.w3.org/1999/xlink" x="0px" y="0px"
	 viewBox="0 0 504.3 306.8" style="enable-background:new 0 0 504.3 306.8;" xml:space="preserve">
<style type="text/css">
	.st0{fill:#FFFFFF;}
</style>
<g>
	<polygon class="st0" points="44.8,247.7 31.2,287.3 17.2,247.7 0,247.7 21.3,305.6 40.2,305.6 61.6,247.7 44.8,247.7 	"/>
	<path class="st0" d="M148.9,276.7c0-8.6,7-15.6,15.6-15.6c8.6,0,15.6,7,15.6,15.6c0,8.6-7,15.6-15.6,15.6
		C155.9,292.4,148.9,285.4,148.9,276.7L148.9,276.7z M179.6,224.1v28.4c0,0-0.1,0-0.1-0.1c-4.8-3.5-10.6-5.7-16.9-5.7
		c-16,0-29,13.4-29,29.9c0,16.5,13,29.9,29,29.9c6.3,0,12.2-2.1,16.9-5.6v4.8h14.9v-81.6H179.6L179.6,224.1z"/>
	<path class="st0" d="M219.7,276.7c0-8.6,7-15.6,15.6-15.6c8.6,0,15.7,7,15.7,15.6c0,8.6-7,15.6-15.7,15.6
		C226.7,292.4,219.7,285.4,219.7,276.7L219.7,276.7z M250.3,247.8v4.8c0,0,0,0-0.1-0.1c-4.7-3.5-10.6-5.7-16.9-5.7
		c-16,0-29,13.4-29,29.9c0,16.5,13,29.9,29,29.9c6.3,0,12.2-2.1,16.9-5.6v4.8h14.9v-57.9H250.3L250.3,247.8z"/>
	<path class="st0" d="M305.8,247.8h-8.9c0,0,0-1.9,0-3.5c0-3.7,0-8.3,5.8-8.3c1.5,0,2.9,0.3,2.9,0.3v-13.5c0,0-2.4-0.1-4.1,0
		c-13.7,0.5-19.7,5.2-19.7,18.9v6.2h-6.7v13.3h6.7v44.5h15.1v-44.5h8.9V247.8L305.8,247.8z"/>
	<path class="st0" d="M395.8,252.8c4.2-3.9,10.4-6.3,17-6.3c13.6,0,21.5,8.7,21.5,20.2l0,6.5v32.4H419v-31v-2.8
		c0-8.5-5.9-11.1-10.6-11.1c-4.3,0-12.6,2.4-12.1,12.8l0,3.8v28.3h-15.4v-57.8h14.9V252.8L395.8,252.8z"/>
	<path class="st0" d="M460.3,281.2c0.7,7.3,6.8,12.6,14.3,12.6c5.9,0,9.8-2.3,12.1-6.5h16.1c-2.6,9-12.7,19.2-27.6,19.2
		c-18,0-30.6-13.4-30.6-29.9c0-16.5,13.6-29.9,30.6-29.9c17.1,0,29.2,14.6,29.2,29.9c0,3.2-0.4,4.6-0.4,4.6L460.3,281.2L460.3,281.2
		z M488.1,270c-1.3-6.6-6.8-10.3-13.5-10.3c-6.9,0-12.3,4-13.9,10.3L488.1,270L488.1,270z"/>
	<path class="st0" d="M105.5,248.6c-5.5,1.2-9.6,6.1-9.6,12c0,0.1,0,0.3,0,0.4c8.7,1.9,13.1,7.7,13.1,15.4c0,8.7-7.1,15.7-15.8,15.7
		s-16.8-7.2-16.8-18c0-13.1,11.2-25.4,27.3-25.8c0.3,0,0.7,0,1.2,0c-3.5-1.3-7.4-2.1-11.4-2.1c-17.2,0-31.1,13.5-31.1,30.1
		c0,16.6,13.9,30.1,31.1,30.1c17.2,0,31.1-13.5,31.1-30.1C124.6,263.9,116.7,253.1,105.5,248.6L105.5,248.6z"/>
	<path class="st0" d="M340.2,246.5c-17.2,0-31.1,13.5-31.1,30.1c0,12.5,7.9,23.2,19.1,27.8c5.5-1.2,9.6-6.1,9.6-12
		c0-0.1,0-0.3,0-0.4c-8.7-1.9-13.1-7.7-13.1-15.4c0-8.7,7.1-15.7,15.8-15.7c8.7,0,16.8,7.2,16.8,18c0,13.1-11.2,25.4-27.3,25.8
		c-0.3,0-0.7,0-1.2,0c3.5,1.3,7.3,2.1,11.4,2.1c17.2,0,31.1-13.5,31.1-30.1C371.4,260,357.4,246.5,340.2,246.5L340.2,246.5z"/>
	<path class="st0" d="M289.7,7.4c-17.5,3.9-30.7,19.5-30.7,38.3c0,0.4,0.1,0.9,0.1,1.3c27.7,5.9,41.6,24.7,41.6,49.5
		c0,27.8-22.6,50.4-50.2,50.4c-27.6,0-53.4-23.2-53.4-57.7c0-42,35.8-81.5,86.7-82.7c0.9,0,2.4,0,3.9,0.1C276.5,2.4,264.3,0,251.6,0
		c-54.7,0-99.1,43.2-99.1,96.6c0,53.3,44.4,96.6,99.1,96.6c54.7,0,99-43.2,99-96.6C350.6,56.4,325.5,22,289.7,7.4L289.7,7.4z"/>
</g>
</svg>
