<?xml version="1.0" encoding="utf-8"?>
<!-- Generator: Adobe Illustrator 27.1.1, SVG Export Plug-In . SVG Version: 6.00 Build 0)  -->
<svg version="1.1" id="Layer_1" xmlns="http://www.w3.org/2000/svg" xmlns:xlink="http://www.w3.org/1999/xlink" x="0px" y="0px"
	 viewBox="0 0 222.8 24.6" style="enable-background:new 0 0 222.8 24.6;" xml:space="preserve">
<style type="text/css">
	.st0{fill:#FFFFFF;}
</style>
<path class="st0" d="M218.8,23.3l-6.2-8.9H212v8.9h-3.3V1.5h3.9c2.9,0,5,0.5,6.2,1.6c1.4,1.2,2.1,2.8,2.1,4.8c0,1.5-0.4,2.9-1.3,4
	s-2.1,1.8-3.5,2.1l6.7,9.3H218.8z M199.8,4.6h-8.7v5.2h8.5v3.1h-8.5v7.3h8.7v3.1h-12V1.5h12V4.6z M179.3,12.6c0,1.6-0.2,3.1-0.6,4.3
	c-0.4,1.2-1,2.3-1.9,3.3c-2,2.3-4.6,3.4-7.7,3.4c-3,0-5.7-1.1-7.8-3.3c-2.2-2.2-3.3-4.9-3.3-8c0-3.2,1.1-5.8,3.3-8
	c2.2-2.2,4.9-3.3,8.1-3.3c1.7,0,3.3,0.3,4.8,1c1.4,0.7,2.8,1.8,4.2,3.4L176,7.7c-1.8-2.4-4-3.6-6.5-3.6c-2.3,0-4.2,0.8-5.8,2.4
	c-1.6,1.6-2.3,3.5-2.3,5.9c0,2.4,0.9,4.4,2.6,6c1.6,1.5,3.4,2.2,5.3,2.2c1.6,0,3.1-0.5,4.4-1.6c1.3-1.1,2-2.4,2.2-3.9h-5.4v-3.1h9
	V12.6z M149.9,24.6L134,8v15.3h-3.3V0l15.9,16.6V1.5h3.3V24.6z M120.5,23.3h-3.3V1.5h3.3V23.3z M109,4.6h-5v18.7h-3.3V4.6h-5V1.5
	H109V4.6z M86.7,21.7c-1.3,1.3-3,2-5,2c-1.9,0-3.5-0.6-4.7-1.7c-1.2-1.1-2-2.7-2.3-4.7l3.3-0.7c0.2,1.3,0.4,2.2,0.8,2.7
	c0.7,0.9,1.7,1.4,3,1.4c1,0,1.9-0.3,2.6-1c0.7-0.7,1-1.6,1-2.6c0-0.4-0.1-0.8-0.2-1.2c-0.1-0.4-0.3-0.7-0.6-1
	c-0.2-0.3-0.6-0.6-1-0.8c-0.4-0.3-0.9-0.5-1.4-0.7l-2.1-0.9c-3-1.3-4.5-3.1-4.5-5.5c0-1.6,0.6-3,1.9-4.1c1.3-1.1,2.8-1.7,4.7-1.7
	c2.5,0,4.5,1.2,5.9,3.7l-2.7,1.6c-0.5-0.9-1-1.4-1.4-1.7c-0.5-0.3-1.1-0.5-1.8-0.5c-0.9,0-1.7,0.3-2.3,0.8c-0.6,0.5-0.9,1.1-0.9,1.9
	c0,1.1,0.8,1.9,2.4,2.6l2.2,0.9c1.8,0.7,3.1,1.6,3.9,2.6c0.8,1,1.2,2.3,1.2,3.8C88.7,18.7,88.1,20.4,86.7,21.7 M59.3,4.6h-8.7v5.2
	H59v3.1h-8.5v7.3h8.7v3.1h-12V1.5h12V4.6z M37.5,23.3h-3.3V13.1h-9.4v10.2h-3.3V1.5h3.3V10h9.4V1.5h3.3V23.3z M13.3,4.6h-5v18.7H5
	V4.6H0V1.5h13.3V4.6z M217.7,7.9c0-2.2-1.5-3.3-4.5-3.3h-1.2v6.9h1C216.1,11.5,217.7,10.3,217.7,7.9"/>
</svg>
