<?xml version="1.0" encoding="utf-8"?>
<!-- Generator: Adobe Illustrator 27.1.1, SVG Export Plug-In . SVG Version: 6.00 Build 0)  -->
<svg version="1.1" id="Layer_1" xmlns="http://www.w3.org/2000/svg" xmlns:xlink="http://www.w3.org/1999/xlink" x="0px" y="0px"
	 viewBox="0 0 293.3 316.5" style="enable-background:new 0 0 293.3 316.5;" xml:space="preserve">
<style type="text/css">
	.st0{fill:#FFFFFF;}
</style>
<path class="st0" d="M13.1,173.8c0,0,9.6-9,18.4-34c7.8-20,14.2-52,15.3-58.4c1.1-6.4,4.9-23.2,8.2-22.7c3.4,0.5,6,14.9,6,14.9
	c-6.8-1.6-9.5,8.6-11,16.8c-1.5,8.2-1.9,19.9-12.4,47.3C27.2,165.2,13.1,173.8,13.1,173.8 M113.7,185.1c0,0-9.7-15.7-28.8-25.1
	c-11-5.4-33.1-7.4-33,2.7c0.2,2.9,7,1.3,9.7,0.2C64.4,161.7,88.1,158.6,113.7,185.1 M107.7,193.2c0,0-11.7-14.1-31.9-20.6
	c-10.5-3.4-33.2-2-32.4,6.3c0.6,3.3,7.3,0.7,10.1-0.4C56.6,177.1,78.9,170.2,107.7,193.2 M115.3,159.3c0,0-3.8-7.9-11.8-11.7
	c-7.9-3.8-17.5-3.2-20.8-2.9c-3.3,0.3-6.4-0.4-6.4-2.5c-0.1-2.1,4.1-6,9-10.3c5.1-4.5,9.7-8.8,12.6-15.3c3.3-7.4,2.8-11.7,2.6-17.3
	C100.2,93.7,97.1,85,93,79c-4-6-8.3-11.4-13.6-17.3c-5.3-5.9-8.6-9.8-7.4-11.3c1.3-1.5,12.1,3.9,16.8,7.4
	c4.6,3.5,23.6,21.9,31.9,41.3c8.2,19.4,16.6,32.1,17.5,89.9c0,0-8.8,11.1-14.5,18.9l14.5-16.3c0,0-1.1,16.4-4.7,29.9
	c-0.9,3,0.6,3.5,2,3.7c1.4,0.2,2.9-1.3,3.8-5.2c0.9-3.9,4.4-21.6,5.1-34.4c0,0,31.2-32.3,58.2-22.8c0,0-12.9-10-34.9,0.1
	c-4,1.8-6.5,3.8-3.5-3.1c3-6.9,8-19.5,4.8-32.7c-3.2-13.2-12.9-21.3-16.5-27.5c-3.6-6.2,0.7-8,12-5.3c11.3,2.7,39.9,15.4,39.9,15.4
	s-26.7-18.6-47.1-23.4c-20.3-4.8-23.9,5.3-13.7,16.8c10.1,11.5,18.6,21.2,19.2,39.7c0.7,18.5-18,36.9-18,36.9s0.7-22.9-3.5-44.2
	c-4.2-21.3-16.8-44-24.4-55c-7.6-11-20.8-25.1-35.6-32.2c-14.8-7.2-21.8-5.1-22.1-2.1c-0.3,3,9.2,12.1,18.1,23.8
	c9,11.6,14.8,22.8,13.3,36.9c-1.6,14.1-13.8,22.7-19.7,28.4c-5.9,5.7-12.9,12.9,2.3,14.8C88.4,152.2,100.9,145.5,115.3,159.3
	 M123.7,32.2c3,7.4,3,24,2.3,30.1c-0.7,6.1-2,11.3,0.7,11.7c2.7,0.3,4.5-2.4,3.8-16.2C129.9,43.9,123.7,32.2,123.7,32.2 M137.3,50.1
	c1.5-1.3,1.7-2.3,1.4-5.3c-0.2-1.6-0.8-3.2,1-3.2c1.8,0,3.5,2.6,12.4,4c8.9,1.4,10.6-5.7,10.6-5.7c-4.7,7.3-22.5-2.8-25.5-5.4
	c-3-2.6-7.4-5.5-7.9-2.6c-0.5,2.9,3.8,7.2,5,8.8c1.2,1.6,1.6,4.9,1.6,7.5C135.8,50.7,136.9,50.5,137.3,50.1 M231.5,81.6
	c1.5-0.9,1.8-2.6,1.3-6.2c-0.2-1.9-1.9-5.8,0.8-6.2c2.1-0.3,6.4,5.7,14.9,7.3c10.2,1.8,12.8-7.1,12.8-7.1
	c-5.4,8.6-26.6-3.3-30.1-6.4c-3.5-3.1-8.5-6.5-9.1-3.1c-0.6,3.4,4.4,8.5,5.8,10.5c1.4,2,1.9,5.9,1.8,8.9
	C229.8,82.3,231,81.9,231.5,81.6 M161.9,16c0,0,7.9,14.9,6.7,37.4c-1.4,15-3.5,25.2,2.2,25.8c5.7,0.7,5.2-10.7,4.9-17.7
	C175.5,54.5,171.1,23.4,161.9,16 M179.2,39.2c0,0,4-7.2,10.3-8.6c6.3-1.4,12.6,1.5,14.6,2.8c2,1.3,3.8,2.9,3.2,0.3
	c-2.6-10.8-12.6-8.9-16.1-8c-3.6,1-12.8-9.5-9.6-15.3c3.6-6.7,16.8-3.7,25.6,3.6c8.8,7.3,21.1,16.8,32,19c10.9,2.2,17-6.3,17-6.3
	c-9.9,5.9-18.3,1.4-23.9-1.8c-5.6-3.2-14.6-12.3-27.6-19.9c-13-7.6-25.7-4.9-30.8-1.9c-5.1,3-5.4,5.8-2,9c3.4,3.2,6.4,7,8.1,12.5
	C181.7,30,179.4,38.6,179.2,39.2 M215.5,61c0,0,0.9,5.9,2.4,14.1c1.9,10.6,0.2,16.6-1.5,24.2c-1.7,7.6-2.1,11.9,1.6,12.4
	c3.7,0.5,4.8-10.5,4.6-25.2C222.5,71.8,215.5,61,215.5,61 M0,191.8c0,0-0.4,10.3,8.7,13.9c9.1,3.6,26.8,0.9,37.9,9.4
	c9.1,6.6,12.6,20.8,17.3,39.2c4.6,18.5,14.7,45.2,51.8,57c37.1,11.8,72.4,1.8,90.2-13.1c17.8-14.8,32.8-48.4,35-55
	c2.2-6.6,8.7-27.2,10.7-34.7c2-7.6,10.1-20.1,17.7-28c7.6-7.9,13.1-13.2,19.6-17.6c6.5-4.4,4.8-8.1,2.3-9.3
	c-2.5-1.2-7.6,1.7-13.5,10.6c-5.9,9-22.9,28.9-41.9,30.2c-19,1.2-33.3-3.2-41.6-5.2c-8.2-2-13.9,0-16.5,4.5
	c-2.6,4.5,0.7,12.4,3.2,16.2c2.6,3.9,5.3,13.4-5.9,20.7c-1.6,0.8-2.2,4,0.8,2.1c3.1-1.9,14.4-8.4,14.4-17.4c0-9.1-7.7-11.3-8-15.5
	c-0.3-4.2,7-6.2,18.1-1.8c11.1,4.5,19.8,8.2,28.3,7.1c8.6-1.2,13.4-3.5,15-1.2c1.6,2.3-2.8,16.7-8.1,30.8
	c-5.3,14.1-14.2,28.9-22,39.8c-7.8,10.9-27.5,30.6-62.3,29.3c-34.7-1.3-52.8-9-64-24.3C76,264,73.4,256.1,69.7,242.9
	c-3.6-13.2-5.2-27.9-15.2-35.3c-10-7.4-23.2-5.2-30.2-5.1C17.3,202.7,6.3,203.9,0,191.8 M12.1,193c0.4,1.5,15.3,0.4,23.4-0.5
	c8.1-1,32.8-0.8,49.9,13.5c17.2,14.3,33.7,32.1,51.7,36.3c18,4.2,29.8-2.6,31.6-7.2c0,0-15.7,8.7-31.8-0.9
	c-16.1-9.6-35.4-27-49.3-36.3c-13.9-9.2-28.4-11.3-47.6-9.6C20.8,190.1,11.6,191,12.1,193 M232.9,174.4c-9.7-3.6-19.8,0.2-19.8,0.2
	s2.9-9.8,3.2-20.9c0.3-11-3.6-17-8.8-22.3c-4.4-4.4-7.4-9.4-2.1-9.8c9.1-0.6,28.4,5.4,37.9,18c11.2,14.9,3.1,35.2,3.1,35.2
	s3.7-4.1,5.9-16.3c2.1-12.2-1.8-24.1-16.7-33.6c-15.2-9.7-37.5-10.3-43.3-7.4c-5.8,2.9-1.7,8,5.2,14.5c6.9,6.5,12.9,16.4,13.4,28.6
	c0.6,12.2-5.8,21.6-6.6,23.3c-0.8,1.7-0.2,2.1-0.2,2.1s1.5-3,10.1-7.4C222.7,174.1,232.9,174.4,232.9,174.4 M163.3,181.1
	c-3.3-0.5-3.9,5.6-5.4,10.7c-1.5,5.1-4.7,19.2-6.8,23.6c-2,4.3-4.2,10.7,1,11.1c5.2,0.4,6.5-7.4,10.9-24.9
	C167.8,182.4,163.5,181.2,163.3,181.1 M204.3,214.8c-4.7,0.2-10.5,6.2-7.8,11.3c3.4,6.1,11.1-1.7,11.1-1.7s-5.9,3.2-7.4-1.2
	C198.4,218.3,204.3,214.8,204.3,214.8 M225.8,221c-8.6-5.3-17.9,7-13.5,14.6c3.6,6.2,11.8,0.1,11.8,0.1c-2.5,1.2-8.2-0.3-6.8-6.3
	C219.8,219.3,225.8,221,225.8,221 M194.1,243.5c-10.6-8.2-18.5,1.6-17.9,10.4c0.5,8.8,5,15.9,13.3,17.9c8.3,2,11.1-7.2,11.1-7.2
	s-2.2,3-6.7,2.5c-8.3-1.3-12.1-13-9.9-19.7C186.2,240.8,194.1,243.5,194.1,243.5 M154.6,288.7c-5.6,0-10.2-6.4-10.2-14.4
	c0-7.9,4.6-14.3,10.2-14.3c2.6,0,4.9,1.4,6.7,3.6c-2.4-4.9-6.5-8.2-11.3-8.2c-7.4,0-13.4,8-13.4,17.9c0,9.9,6,17.9,13.4,17.9
	c2.8,0,5.4-1.1,7.6-3.1C156.6,288.5,155.6,288.7,154.6,288.7 M110.2,277.4c-4.9-2.3-6.2-9.7-3-16.5c3.2-6.8,9.7-10.4,14.6-8.1
	c2.2,1,3.7,3.2,4.4,5.8c-0.1-5.2-2.3-9.7-6.4-11.6c-6.4-3-14.9,1.4-18.9,9.8c-4,8.5-2.1,17.8,4.4,20.8c2.4,1.1,5.1,1.2,7.8,0.4
	C112.1,278.1,111.1,277.9,110.2,277.4 M87.1,247.8c-3.5-0.9-3.3-6.8-0.7-10.9c2.6-4.1,7.2-5.9,10.2-3.9c1.4,0.9,2.2,2.4,2.4,4.2
	c1.3-4.4,0.5-8.5-2.3-10.3c-3.8-2.5-10,0.3-13.8,6.3c-3.8,5.9-3.8,12.7,0.1,15.2c1.8,1.1,5.4,1.9,9.5-0.8
	C91.7,247.5,89.2,248.4,87.1,247.8 M76.7,225.9c0,0-3.3-0.6-2.7-3.7c0.6-3.1,3.3-4.9,5.7-5c2.4-0.1,3.4,2.1,3.4,3
	c0,0,1.9-4.6-1.1-6.8c-3-2.2-7.5-0.3-10.3,2.5C69.4,218.4,66.8,227.4,76.7,225.9"/>
</svg>
