<?xml version="1.0" encoding="utf-8"?>
<!-- Generator: Adobe Illustrator 27.0.1, SVG Export Plug-In . SVG Version: 6.00 Build 0)  -->
<svg version="1.1" id="Layer_1" xmlns="http://www.w3.org/2000/svg" xmlns:xlink="http://www.w3.org/1999/xlink" x="0px" y="0px"
	 viewBox="0 0 262.7 102.2" style="enable-background:new 0 0 262.7 102.2;" xml:space="preserve">
<style type="text/css">
	.st0{opacity:0.1;}
	.st1{fill:#FFFFFF;}
</style>
<g class="st0">
	<path class="st1" d="M48.8,0v24.7c-13.3,0-24.1,10.8-24.1,24.1H0C0,21.8,21.9,0,48.8,0z"/>
	<path class="st1" d="M53.4,0c26.9,0,48.8,21.9,48.8,48.8H77.5c0-13.3-10.8-24.1-24.1-24.1L53.4,0L53.4,0z"/>
	<path class="st1" d="M131,48.8c0-13.3-10.8-24.1-24.1-24.1V0c26.9,0,48.8,21.9,48.8,48.8H131z"/>
	<path class="st1" d="M209.2,102.2c-26.9,0-48.8-21.9-48.8-48.8h24.7c0,13.3,10.8,24.1,24.1,24.1L209.2,102.2L209.2,102.2z"/>
	<path class="st1" d="M213.9,24.7V0c26.9,0,48.8,21.9,48.8,48.8H238C238,35.5,227.2,24.7,213.9,24.7z"/>
</g>
</svg>
