<?xml version="1.0" encoding="utf-8"?>
<!-- Generator: Adobe Illustrator 27.0.1, SVG Export Plug-In . SVG Version: 6.00 Build 0)  -->
<svg version="1.1" id="Layer_1" xmlns="http://www.w3.org/2000/svg" xmlns:xlink="http://www.w3.org/1999/xlink" x="0px" y="0px"
	 viewBox="0 0 468.9 468.9" style="enable-background:new 0 0 468.9 468.9;" xml:space="preserve">
<style type="text/css">
	.st0{fill:#FFFFFF;}
</style>
<g>
	<path class="st0" d="M149.1,267.2c-10.9,0-19.8,8.1-19.8,19c0,5.4,1.4,10,5.2,13.8c3.7,3.9,8.8,6.1,14.1,6.1
		c11,0,19.9-8.2,19.9-19.4C168.6,276,159.9,267.2,149.1,267.2z"/>
	<path class="st0" d="M78.1,249.9L78.1,249.9c-15.7,0-28.7,12.7-28.7,28.4c0,15.5,13.5,27.9,28.7,27.9c15.7,0,28.6-12.6,28.6-28.4
		C106.7,262.3,93.4,249.9,78.1,249.9z"/>
	<path class="st0" d="M234.5,0C105,0,0,105,0,234.5c0,129.5,105,234.5,234.5,234.5c129.5,0,234.5-105,234.5-234.5
		C468.9,105,363.9,0,234.5,0z M232.5,183.4v24.7c-13.3,0-24.1,10.8-24.1,24.1h-24.7C183.7,205.2,205.6,183.4,232.5,183.4z M78,312.6
		c-18.7,0-35.3-15.1-35.3-34.3c0-19.5,15.9-34.8,35.3-34.8c18.9,0,35.4,15.1,35.4,34.3C113.4,297.2,97.4,312.6,78,312.6z
		 M148.5,312.6c-7.3,0-15.5-3.5-18.7-10.4v26.6h-6.7v-66.9h6.3v8.5c3.9-6.4,12.6-9.6,19.7-9.6c7.2,0,13.9,2.8,20.3,9.6
		c3,2.7,5.9,9.2,5.9,16.5C175.3,301.6,162.9,312.6,148.5,312.6z M207.8,306.2c7.3,0,14.7-4.1,17.7-10.9h7
		c-3.4,10-13.6,17.3-24.1,17.3c-14.5,0-26-11.4-26-25.9c0-14.4,11.4-25.9,25.8-25.9c7.8,0,14.9,3.5,19.9,9.6
		c4.6,5.7,5.6,11.5,5.8,18.6h-44.8C189.5,298.5,198.6,306.2,207.8,306.2z M237.1,183.4c26.9,0,48.8,21.9,48.8,48.8h-24.7
		c0-13.3-10.8-24.1-24.1-24.1V183.4z M286,311.4h-6.7v-26.1c0-4.2-0.4-8.2-2.9-11.8c-3-4.2-7.7-6.3-12.8-6.3
		c-4.6,0-9.4,2.3-12.1,6.1c-2.6,3.5-2.5,7.9-2.6,12v26.1h-6.7v-49.5h6.3v7.1c3.8-5.3,8.9-8.2,15.4-8.2c6.6,0,13.1,2.9,17.6,8.2
		c3.8,4.8,4.5,10,4.5,16.3V311.4z M314.7,232.2c0-13.3-10.8-24.1-24.1-24.1v-24.7c26.9,0,48.8,21.9,48.8,48.8H314.7z M392.9,285.6
		c-26.9,0-48.8-21.9-48.8-48.8h24.7c0,13.3,10.8,24.1,24.1,24.1V285.6z M397.6,208.1v-24.7c26.9,0,48.8,21.9,48.8,48.8h-24.7
		C421.7,218.9,410.9,208.1,397.6,208.1z"/>
	<path class="st0" d="M208.3,267.2c-9.3,0-17.6,6.6-19.2,15.7h38.1C225.5,274.2,217.4,267.2,208.3,267.2z"/>
</g>
</svg>
