<?xml version="1.0" encoding="utf-8"?>
<!-- Generator: Adobe Illustrator 27.0.1, SVG Export Plug-In . SVG Version: 6.00 Build 0)  -->
<svg version="1.1" id="Layer_1" xmlns="http://www.w3.org/2000/svg" xmlns:xlink="http://www.w3.org/1999/xlink" x="0px" y="0px"
	 viewBox="0 0 904.9 468.9" style="enable-background:new 0 0 904.9 468.9;" xml:space="preserve">
<style type="text/css">
	.st0{fill:#688A92;}
</style>
<g>
	<path class="st0" d="M393.8,256.9c-7.5,0-13.6,5.6-13.6,13c0,3.7,1,6.9,3.6,9.5c2.5,2.7,6,4.2,9.7,4.2c7.5,0,13.7-5.6,13.7-13.3
		C407.2,262.9,401.2,256.9,393.8,256.9z"/>
	<path class="st0" d="M345.1,245L345.1,245c-10.8,0-19.7,8.7-19.7,19.5c0,10.6,9.3,19.1,19.7,19.1c10.8,0,19.6-8.6,19.6-19.5
		C364.7,253.5,355.6,245,345.1,245z"/>
	<path class="st0" d="M452.4,73.5c-88.9,0-160.9,72.1-160.9,160.9s72.1,160.9,160.9,160.9s160.9-72.1,160.9-160.9
		C613.3,145.6,541.3,73.5,452.4,73.5z M451.1,199.4v17c-9.1,0-16.5,7.4-16.5,16.5h-17C417.6,214.3,432.6,199.4,451.1,199.4z
		 M345,288.1c-12.8,0-24.2-10.4-24.2-23.5c0-13.4,10.9-23.9,24.2-23.9c13,0,24.3,10.4,24.3,23.5C369.3,277.5,358.4,288.1,345,288.1z
		 M393.4,288.1c-5,0-10.6-2.4-12.8-7.1v18.3H376v-45.9h4.3v5.8c2.7-4.4,8.6-6.6,13.5-6.6c4.9,0,9.5,1.9,13.9,6.6
		c2.1,1.9,4,6.3,4,11.3C411.8,280.5,403.3,288.1,393.4,288.1z M434.1,283.7c5,0,10.1-2.8,12.1-7.5h4.8c-2.3,6.9-9.3,11.9-16.5,11.9
		c-10,0-17.8-7.8-17.8-17.8c0-9.9,7.8-17.8,17.7-17.8c5.4,0,10.2,2.4,13.7,6.6c3.2,3.9,3.8,7.9,4,12.8h-30.7
		C421.6,278.4,427.8,283.7,434.1,283.7z M454.2,199.4c18.5,0,33.5,15,33.5,33.5h-17c0-9.1-7.4-16.5-16.5-16.5V199.4L454.2,199.4z
		 M487.8,287.2h-4.6v-17.9c0-2.9-0.3-5.6-2-8.1c-2.1-2.9-5.3-4.3-8.8-4.3c-3.2,0-6.5,1.6-8.3,4.2c-1.8,2.4-1.7,5.4-1.8,8.2v17.9
		h-4.6v-34h4.3v4.9c2.6-3.6,6.1-5.6,10.6-5.6c4.5,0,9,2,12.1,5.6c2.6,3.3,3.1,6.9,3.1,11.2V287.2z M507.5,232.9
		c0-9.1-7.4-16.5-16.5-16.5v-17c18.5,0,33.5,15,33.5,33.5H507.5z M561.2,269.5c-18.5,0-33.5-15-33.5-33.5h17
		c0,9.1,7.4,16.5,16.5,16.5L561.2,269.5L561.2,269.5z M564.4,216.3v-17c18.5,0,33.5,15,33.5,33.5h-17
		C580.9,223.7,573.5,216.3,564.4,216.3z"/>
	<path class="st0" d="M434.5,256.9c-6.4,0-12.1,4.5-13.2,10.8h26.1C446.3,261.7,440.7,256.9,434.5,256.9z"/>
</g>
</svg>
