<?xml version="1.0" encoding="UTF-8" standalone="no"?>
<!DOCTYPE svg PUBLIC "-//W3C//DTD SVG 1.1//EN" "http://www.w3.org/Graphics/SVG/1.1/DTD/svg11.dtd">
<svg width="100%" height="100%" viewBox="0 0 1955 1955" version="1.1" xmlns="http://www.w3.org/2000/svg" xmlns:xlink="http://www.w3.org/1999/xlink" xml:space="preserve" xmlns:serif="http://www.serif.com/" style="fill-rule:evenodd;clip-rule:evenodd;stroke-linejoin:round;stroke-miterlimit:2;">
    <g transform="matrix(4.16667,0,0,4.16667,0,0)">
        <path d="M459.684,456.551C459.32,459.842 456.467,461.903 453.285,461.903C448.652,461.903 445.615,458.428 445.615,453.912C445.615,449.354 448.473,445.988 453.176,445.988C456.502,445.988 459.141,447.908 459.684,451.197L457.695,451.197C457.297,449.029 455.416,447.615 453.213,447.615C449.559,447.615 447.643,450.44 447.643,453.877C447.643,457.199 449.703,460.24 453.285,460.24C455.453,460.24 457.404,458.828 457.695,456.551L459.684,456.551ZM464.783,454.02C464.783,447.328 459.357,441.903 452.67,441.903C445.941,441.903 440.516,447.328 440.516,454.02C440.516,460.779 445.941,466.205 452.67,466.205C459.357,466.205 464.783,460.779 464.783,454.02ZM438.816,454.02C438.816,446.426 445,440.242 452.67,440.242C460.299,440.242 466.447,446.426 466.447,454.02C466.447,461.686 460.299,467.871 452.67,467.871C445,467.871 438.816,461.686 438.816,454.02Z" style="fill:rgb(104,139,148);fill-rule:nonzero;"/>
        <path d="M0,234.543C0,105.057 104.961,0.09 234.453,0.09C363.938,0.09 468.906,105.057 468.906,234.543C468.906,364.033 363.938,469 234.453,469C104.961,469 0,364.033 0,234.543Z" style="fill:rgb(104,139,148);fill-rule:nonzero;"/>
        <path d="M78.084,249.873C62.335,249.963 49.394,262.635 49.394,278.383C49.394,293.858 62.878,306.256 78.084,306.256C93.83,306.256 106.68,293.674 106.68,277.836C106.68,262.361 93.377,249.963 78.084,249.963L78.084,249.873ZM113.379,277.836C113.379,297.295 97.361,312.678 77.994,312.678C59.257,312.678 42.697,297.569 42.697,278.383C42.697,258.925 58.625,243.537 77.994,243.537C96.908,243.537 113.379,258.651 113.379,277.836Z" style="fill:rgb(26,84,155);fill-rule:nonzero;"/>
        <path d="M168.582,286.891C168.582,276.117 159.891,267.34 149.123,267.34C138.264,267.34 129.304,275.395 129.304,286.344C129.304,291.774 130.662,296.299 134.553,300.194C138.264,304.084 143.33,306.256 148.67,306.256C159.711,306.256 168.582,298.018 168.582,286.891ZM129.395,262.002L129.395,270.508C133.287,264.082 141.975,260.916 149.123,260.916C156.363,260.916 163.059,263.721 169.395,270.508C172.383,273.223 175.277,279.738 175.277,286.977C175.277,301.729 162.879,312.678 148.49,312.678C141.158,312.678 133.014,309.151 129.756,302.272L129.756,328.879L123.059,328.879L123.059,262.002L129.395,262.002Z" style="fill:rgb(26,84,155);fill-rule:nonzero;"/>
        <path d="M227.223,283.086C225.504,274.309 217.449,267.34 208.311,267.34C198.986,267.34 190.752,273.945 189.123,283.086L227.223,283.086ZM189.123,289.149C189.482,298.561 198.627,306.256 207.768,306.256C215.094,306.256 222.516,302.182 225.504,295.397L232.473,295.397C229.031,305.35 218.895,312.678 208.4,312.678C193.92,312.678 182.426,301.279 182.426,286.797C182.426,272.406 193.83,260.916 208.217,260.916C216,260.916 223.148,264.445 228.129,270.508C232.742,276.211 233.738,282 233.922,289.149L189.123,289.149Z" style="fill:rgb(26,84,155);fill-rule:nonzero;"/>
        <path d="M242.244,262.002L248.58,262.002L248.58,269.149C252.381,263.813 257.446,260.916 263.965,260.916C270.57,260.916 277.086,263.813 281.52,269.149C285.324,273.945 286.047,279.195 286.047,285.438L286.047,311.506L279.348,311.506L279.348,285.438C279.348,281.188 278.988,277.203 276.453,273.672C273.465,269.512 268.762,267.34 263.693,267.34C259.075,267.34 254.279,269.602 251.564,273.403C248.939,276.934 249.033,281.278 248.939,285.438L248.939,311.506L242.244,311.506L242.244,262.002Z" style="fill:rgb(26,84,155);fill-rule:nonzero;"/>
        <path d="M78.084,249.873C62.335,249.963 49.394,262.635 49.394,278.383C49.394,293.858 62.878,306.256 78.084,306.256C93.83,306.256 106.68,293.674 106.68,277.836C106.68,262.361 93.377,249.963 78.084,249.963L78.084,249.873ZM113.379,277.836C113.379,297.295 97.361,312.678 77.994,312.678C59.257,312.678 42.697,297.569 42.697,278.383C42.697,258.925 58.625,243.537 77.994,243.537C96.908,243.537 113.379,258.651 113.379,277.836Z" style="fill:white;fill-rule:nonzero;"/>
        <path d="M168.582,286.891C168.582,276.117 159.891,267.34 149.123,267.34C138.264,267.34 129.304,275.395 129.304,286.344C129.304,291.774 130.662,296.299 134.553,300.194C138.264,304.084 143.33,306.256 148.67,306.256C159.711,306.256 168.582,298.018 168.582,286.891ZM129.395,262.002L129.395,270.508C133.287,264.082 141.975,260.916 149.123,260.916C156.363,260.916 163.059,263.721 169.395,270.508C172.383,273.223 175.277,279.738 175.277,286.977C175.277,301.729 162.879,312.678 148.49,312.678C141.158,312.678 133.014,309.151 129.756,302.272L129.756,328.879L123.059,328.879L123.059,262.002L129.395,262.002Z" style="fill:white;fill-rule:nonzero;"/>
        <path d="M227.223,283.086C225.504,274.309 217.449,267.34 208.311,267.34C198.986,267.34 190.752,273.945 189.123,283.086L227.223,283.086ZM189.123,289.149C189.482,298.561 198.627,306.256 207.768,306.256C215.094,306.256 222.516,302.182 225.504,295.397L232.473,295.397C229.031,305.35 218.895,312.678 208.4,312.678C193.92,312.678 182.426,301.279 182.426,286.797C182.426,272.406 193.83,260.916 208.217,260.916C216,260.916 223.148,264.445 228.129,270.508C232.742,276.211 233.738,282 233.922,289.149L189.123,289.149Z" style="fill:white;fill-rule:nonzero;"/>
        <path d="M242.244,262.002L248.58,262.002L248.58,269.149C252.381,263.813 257.446,260.916 263.965,260.916C270.57,260.916 277.086,263.813 281.52,269.149C285.324,273.945 286.047,279.195 286.047,285.438L286.047,311.506L279.348,311.506L279.348,285.438C279.348,281.188 278.988,277.203 276.453,273.672C273.465,269.512 268.762,267.34 263.693,267.34C259.075,267.34 254.279,269.602 251.564,273.403C248.939,276.934 249.033,281.278 248.939,285.438L248.939,311.506L242.244,311.506L242.244,262.002Z" style="fill:white;fill-rule:nonzero;"/>
        <path d="M460.08,457.631C459.717,460.934 456.848,463.002 453.654,463.002C449.006,463.002 445.957,459.518 445.957,454.981C445.957,450.406 448.826,447.029 453.543,447.029C456.883,447.029 459.533,448.953 460.08,452.258L458.08,452.258C457.682,450.08 455.795,448.662 453.582,448.662C449.916,448.662 447.992,451.496 447.992,454.944C447.992,458.285 450.059,461.334 453.654,461.334C455.83,461.334 457.793,459.916 458.08,457.631L460.08,457.631ZM465.197,455.092C465.197,448.375 459.752,442.928 453.037,442.928C446.283,442.928 440.84,448.375 440.84,455.092C440.84,461.881 446.283,467.324 453.037,467.324C459.752,467.324 465.197,461.881 465.197,455.092ZM439.133,455.092C439.133,447.465 445.342,441.256 453.037,441.256C460.695,441.256 466.869,447.465 466.869,455.092C466.869,462.785 460.695,468.992 453.037,468.992C445.342,468.992 439.133,462.785 439.133,455.092Z" style="fill:rgb(104,139,148);fill-rule:nonzero;"/>
        <path d="M183.662,232.244L208.4,232.244C208.4,218.981 219.193,208.192 232.453,208.192L232.453,183.445C205.553,183.445 183.662,205.338 183.662,232.244Z" style="fill:white;fill-rule:nonzero;"/>
        <path d="M237.143,208.192C250.41,208.192 261.196,218.981 261.196,232.244L285.941,232.244C285.941,205.338 264.053,183.445 237.143,183.445L237.143,208.192Z" style="fill:white;fill-rule:nonzero;"/>
        <path d="M290.631,208.192C303.898,208.192 314.686,218.981 314.686,232.244L339.43,232.244C339.43,205.338 317.539,183.445 290.631,183.445L290.631,208.192Z" style="fill:white;fill-rule:nonzero;"/>
        <path d="M344.119,236.846C344.119,263.748 366.008,285.643 392.918,285.643L392.918,260.901C379.65,260.901 368.863,250.108 368.863,236.846L344.119,236.846Z" style="fill:white;fill-rule:nonzero;"/>
        <path d="M397.607,208.192C410.867,208.192 421.66,218.981 421.66,232.244L446.406,232.244C446.406,205.338 424.516,183.445 397.607,183.445L397.607,208.192Z" style="fill:white;fill-rule:nonzero;"/>
    </g>
</svg>
